<svg width="20" height="20" viewBox="0 0 20 20" fill="none" xmlns="http://www.w3.org/2000/svg">
<path d="M10.0034 8.75H10.0109M13.333 8.75H13.3405M6.67383 8.75H6.6813" stroke="currentColor" stroke-width="2" stroke-linecap="round" stroke-linejoin="round"/>
<path d="M1.66602 8.75016C1.66602 8.10784 1.67723 7.48082 1.69859 6.87541C1.76837 4.89752 1.80326 3.90857 2.60774 3.09804C3.41222 2.2875 4.4291 2.244 6.46285 2.15699C7.57866 2.10925 8.76677 2.0835 9.99935 2.0835C11.2319 2.0835 12.42 2.10925 13.5358 2.15699C15.5696 2.244 16.5865 2.2875 17.3909 3.09804C18.1954 3.90857 18.2303 4.89752 18.3001 6.87541C18.3214 7.48082 18.3327 8.10784 18.3327 8.75016C18.3327 9.3925 18.3214 10.0195 18.3001 10.6249C18.2303 12.6028 18.1954 13.5917 17.3909 14.4023C16.5865 15.2128 15.5696 15.2563 13.5358 15.3433C12.9242 15.3695 12.2908 15.3891 11.6404 15.4014C11.0228 15.4131 10.714 15.419 10.4427 15.5223C10.1713 15.6257 9.9431 15.8214 9.48643 16.2129L7.67021 17.7703C7.55996 17.8648 7.41951 17.9168 7.27427 17.9168C6.93834 17.9168 6.66602 17.6445 6.66602 17.3086V15.3517C6.59803 15.349 6.53031 15.3462 6.46284 15.3433C4.42909 15.2563 3.41222 15.2128 2.60774 14.4022C1.80326 13.5917 1.76837 12.6028 1.69859 10.6249C1.67723 10.0195 1.66602 9.3925 1.66602 8.75016Z" stroke="currentColor" stroke-width="1.5" stroke-linecap="round" stroke-linejoin="round"/>
</svg>
