<svg width="229" height="44" viewBox="0 0 229 44" fill="none" xmlns="http://www.w3.org/2000/svg">
<rect width="229" height="44" rx="12" fill="#B0E9F4"/>
<path d="M26.25 19.5C26.9404 19.5 27.5 18.9404 27.5 18.25C27.5 17.5596 26.9404 17 26.25 17C25.5596 17 25 17.5596 25 18.25C25 18.9404 25.5596 19.5 26.25 19.5Z" stroke="#004D5C" stroke-width="1.5" stroke-linecap="round" stroke-linejoin="round"/>
<path d="M22.082 22.0002C22.082 18.2682 22.082 16.4022 23.2414 15.2429C24.4008 14.0835 26.2667 14.0835 29.9987 14.0835C33.7306 14.0835 35.5966 14.0835 36.756 15.2429C37.9154 16.4022 37.9154 18.2682 37.9154 22.0002C37.9154 25.7321 37.9154 27.5981 36.756 28.7575C35.5966 29.9168 33.7306 29.9168 29.9987 29.9168C26.2667 29.9168 24.4008 29.9168 23.2414 28.7575C22.082 27.5981 22.082 25.7321 22.082 22.0002Z" stroke="#004D5C" stroke-width="1.5"/>
<path d="M24.168 29.5C27.8117 25.1458 31.8964 19.4033 37.9159 23.2853" stroke="#141B34" stroke-width="1.5"/>
<path d="M54.272 27.724C53.7493 27.724 53.2213 27.6493 52.688 27.5C52.1547 27.34 51.6427 27.1053 51.152 26.796C50.6613 26.476 50.224 26.0867 49.84 25.628C49.4667 25.1587 49.168 24.62 48.944 24.012C48.72 23.3933 48.608 22.7107 48.608 21.964C48.608 21.228 48.72 20.5667 48.944 19.98C49.168 19.3827 49.4667 18.86 49.84 18.412C50.224 17.964 50.656 17.5907 51.136 17.292C51.6267 16.9933 52.1387 16.7693 52.672 16.62C53.216 16.46 53.7547 16.3747 54.288 16.364C54.832 16.364 55.3013 16.4227 55.696 16.54C56.0907 16.6573 56.4107 16.7853 56.656 16.924C56.9013 17.052 57.0667 17.1427 57.152 17.196C57.3227 17.3027 57.4827 17.4253 57.632 17.564C57.792 17.692 57.8773 17.852 57.888 18.044C57.8987 18.172 57.8827 18.2893 57.84 18.396C57.7973 18.492 57.7387 18.5933 57.664 18.7C57.536 18.8813 57.408 19.0147 57.28 19.1C57.152 19.1853 57.024 19.228 56.896 19.228C56.7787 19.228 56.6667 19.196 56.56 19.132C56.464 19.068 56.3413 18.988 56.192 18.892C56.128 18.8493 56.0107 18.7853 55.84 18.7C55.68 18.604 55.4613 18.5187 55.184 18.444C54.9173 18.3693 54.592 18.332 54.208 18.332C53.7493 18.332 53.3013 18.412 52.864 18.572C52.4267 18.732 52.032 18.972 51.68 19.292C51.3387 19.6013 51.0667 19.9907 50.864 20.46C50.6613 20.9187 50.56 21.4467 50.56 22.044C50.56 22.6413 50.6613 23.1747 50.864 23.644C51.0667 24.1027 51.3387 24.492 51.68 24.812C52.032 25.1213 52.4267 25.356 52.864 25.516C53.3013 25.676 53.7493 25.756 54.208 25.756C54.5707 25.756 54.88 25.724 55.136 25.66C55.4027 25.5853 55.6267 25.5 55.808 25.404C56 25.2973 56.144 25.2173 56.24 25.164C56.3573 25.0893 56.4693 25.02 56.576 24.956C56.6827 24.892 56.7947 24.86 56.912 24.86C57.04 24.86 57.1627 24.9027 57.28 24.988C57.408 25.0733 57.5307 25.212 57.648 25.404C57.7227 25.5213 57.7813 25.6333 57.824 25.74C57.8667 25.8467 57.8827 25.9587 57.872 26.076C57.8613 26.268 57.776 26.4333 57.616 26.572C57.4667 26.7 57.3067 26.812 57.136 26.908C57.0507 26.9613 56.8853 27.0573 56.64 27.196C56.4053 27.324 56.0907 27.4413 55.696 27.548C55.3013 27.6653 54.8267 27.724 54.272 27.724ZM60.6604 27.66C60.3617 27.66 60.143 27.612 60.0044 27.516C59.8764 27.4307 59.7964 27.3133 59.7644 27.164C59.7324 27.0147 59.7164 26.8547 59.7164 26.684V17.132C59.7164 16.9507 59.7324 16.7907 59.7644 16.652C59.807 16.5027 59.8924 16.3853 60.0204 16.3C60.159 16.2147 60.3777 16.172 60.6764 16.172C60.975 16.172 61.1884 16.22 61.3164 16.316C61.455 16.4013 61.5404 16.5187 61.5724 16.668C61.615 16.8067 61.6364 16.9667 61.6364 17.148V20.764C61.8497 20.5187 62.1217 20.2947 62.4524 20.092C62.7937 19.8787 63.2044 19.772 63.6844 19.772C64.335 19.772 64.9164 19.932 65.4284 20.252C65.9404 20.5613 66.3457 20.9933 66.6444 21.548C66.943 22.1027 67.0924 22.7533 67.0924 23.5V26.7C67.0924 26.8707 67.0764 27.0307 67.0444 27.18C67.0124 27.3187 66.927 27.4307 66.7884 27.516C66.6604 27.6013 66.447 27.644 66.1484 27.644C65.8497 27.644 65.631 27.6013 65.4924 27.516C65.3537 27.4307 65.2684 27.3187 65.2364 27.18C65.2044 27.0307 65.1884 26.86 65.1884 26.668V23.484C65.1884 23.1107 65.1244 22.7853 64.9964 22.508C64.8684 22.2307 64.6764 22.0173 64.4204 21.868C64.175 21.708 63.8657 21.628 63.4924 21.628C62.991 21.628 62.5697 21.7773 62.2284 22.076C61.887 22.364 61.6897 22.7373 61.6364 23.196V26.7C61.6364 26.8707 61.615 27.0307 61.5724 27.18C61.5404 27.3293 61.455 27.4467 61.3164 27.532C61.1884 27.6173 60.9697 27.66 60.6604 27.66ZM72.597 27.756C72.085 27.756 71.5837 27.66 71.093 27.468C70.613 27.2653 70.1757 26.9827 69.781 26.62C69.397 26.2573 69.0877 25.8307 68.853 25.34C68.629 24.8493 68.517 24.3107 68.517 23.724C68.517 23.1587 68.6237 22.6307 68.837 22.14C69.0503 21.6493 69.3437 21.2173 69.717 20.844C70.0903 20.4707 70.517 20.1827 70.997 19.98C71.4877 19.7667 72.0103 19.66 72.565 19.66C73.3117 19.66 73.989 19.8413 74.597 20.204C75.205 20.556 75.6903 21.036 76.053 21.644C76.4157 22.252 76.597 22.94 76.597 23.708C76.597 24.316 76.485 24.8707 76.261 25.372C76.037 25.8627 75.733 26.2893 75.349 26.652C74.965 27.004 74.533 27.276 74.053 27.468C73.5837 27.66 73.0983 27.756 72.597 27.756ZM72.565 25.868C72.917 25.868 73.253 25.7827 73.573 25.612C73.9037 25.4307 74.1703 25.1747 74.373 24.844C74.5863 24.5133 74.693 24.124 74.693 23.676C74.693 23.26 74.597 22.892 74.405 22.572C74.2237 22.252 73.973 22.0013 73.653 21.82C73.333 21.6387 72.965 21.548 72.549 21.548C72.1543 21.548 71.797 21.644 71.477 21.836C71.157 22.0173 70.901 22.2733 70.709 22.604C70.5277 22.924 70.437 23.2867 70.437 23.692C70.437 24.14 70.5383 24.5293 70.741 24.86C70.9437 25.18 71.205 25.4307 71.525 25.612C71.8557 25.7827 72.2023 25.868 72.565 25.868ZM82.0145 27.756C81.5025 27.756 81.0012 27.66 80.5105 27.468C80.0305 27.2653 79.5932 26.9827 79.1985 26.62C78.8145 26.2573 78.5052 25.8307 78.2705 25.34C78.0465 24.8493 77.9345 24.3107 77.9345 23.724C77.9345 23.1587 78.0412 22.6307 78.2545 22.14C78.4678 21.6493 78.7612 21.2173 79.1345 20.844C79.5078 20.4707 79.9345 20.1827 80.4145 19.98C80.9052 19.7667 81.4278 19.66 81.9825 19.66C82.7292 19.66 83.4065 19.8413 84.0145 20.204C84.6225 20.556 85.1078 21.036 85.4705 21.644C85.8332 22.252 86.0145 22.94 86.0145 23.708C86.0145 24.316 85.9025 24.8707 85.6785 25.372C85.4545 25.8627 85.1505 26.2893 84.7665 26.652C84.3825 27.004 83.9505 27.276 83.4705 27.468C83.0012 27.66 82.5158 27.756 82.0145 27.756ZM81.9825 25.868C82.3345 25.868 82.6705 25.7827 82.9905 25.612C83.3212 25.4307 83.5878 25.1747 83.7905 24.844C84.0038 24.5133 84.1105 24.124 84.1105 23.676C84.1105 23.26 84.0145 22.892 83.8225 22.572C83.6412 22.252 83.3905 22.0013 83.0705 21.82C82.7505 21.6387 82.3825 21.548 81.9665 21.548C81.5718 21.548 81.2145 21.644 80.8945 21.836C80.5745 22.0173 80.3185 22.2733 80.1265 22.604C79.9452 22.924 79.8545 23.2867 79.8545 23.692C79.8545 24.14 79.9558 24.5293 80.1585 24.86C80.3612 25.18 80.6225 25.4307 80.9425 25.612C81.2732 25.7827 81.6198 25.868 81.9825 25.868ZM90.488 27.756C90.2107 27.756 89.9173 27.724 89.608 27.66C89.2987 27.6067 89 27.5267 88.712 27.42C88.424 27.3027 88.1733 27.1693 87.96 27.02C87.7573 26.86 87.6293 26.684 87.576 26.492C87.5333 26.3853 87.5173 26.284 87.528 26.188C87.5387 26.0813 87.5707 25.9747 87.624 25.868C87.6773 25.7507 87.7573 25.6333 87.864 25.516C87.96 25.3987 88.056 25.3347 88.152 25.324C88.2587 25.3027 88.392 25.3347 88.552 25.42C88.6907 25.4733 88.84 25.5427 89 25.628C89.1707 25.7133 89.3413 25.7987 89.512 25.884C89.6933 25.9693 89.8747 26.0387 90.056 26.092C90.248 26.1453 90.4347 26.172 90.616 26.172C91.0107 26.172 91.3253 26.108 91.56 25.98C91.7947 25.8413 91.912 25.6493 91.912 25.404C91.912 25.2653 91.8747 25.1427 91.8 25.036C91.7253 24.9293 91.624 24.844 91.496 24.78C91.3787 24.7053 91.2347 24.6413 91.064 24.588C90.904 24.524 90.728 24.4707 90.536 24.428C90.3547 24.3747 90.1627 24.316 89.96 24.252C89.6933 24.1773 89.4267 24.0867 89.16 23.98C88.8933 23.8733 88.6533 23.7347 88.44 23.564C88.2373 23.3933 88.072 23.18 87.944 22.924C87.816 22.668 87.752 22.348 87.752 21.964C87.752 21.484 87.864 21.0787 88.088 20.748C88.3227 20.4067 88.6587 20.1453 89.096 19.964C89.5333 19.7827 90.0613 19.692 90.68 19.692C90.8933 19.692 91.096 19.708 91.288 19.74C91.4907 19.772 91.6827 19.82 91.864 19.884C92.056 19.9373 92.2373 20.0067 92.408 20.092C92.5893 20.1773 92.76 20.2733 92.92 20.38C93.1867 20.5293 93.3253 20.7053 93.336 20.908C93.3467 21.1 93.272 21.308 93.112 21.532C92.9947 21.6813 92.8773 21.788 92.76 21.852C92.6427 21.9053 92.52 21.9053 92.392 21.852C92.2213 21.7667 92.0347 21.676 91.832 21.58C91.64 21.4733 91.4373 21.3827 91.224 21.308C91.0213 21.2333 90.808 21.196 90.584 21.196C90.3707 21.196 90.1787 21.228 90.008 21.292C89.8373 21.356 89.7093 21.4467 89.624 21.564C89.5387 21.6813 89.496 21.82 89.496 21.98C89.496 22.1293 89.5387 22.252 89.624 22.348C89.7093 22.444 89.8213 22.524 89.96 22.588C90.0987 22.652 90.264 22.7107 90.456 22.764C90.648 22.8067 90.8507 22.8493 91.064 22.892C91.3627 22.956 91.6667 23.036 91.976 23.132C92.2853 23.228 92.568 23.3613 92.824 23.532C93.0907 23.7027 93.304 23.932 93.464 24.22C93.624 24.4973 93.704 24.86 93.704 25.308C93.704 26.0867 93.416 26.6893 92.84 27.116C92.2747 27.5427 91.4907 27.756 90.488 27.756ZM99.3838 27.756C98.6904 27.756 98.0824 27.644 97.5598 27.42C97.0478 27.196 96.6158 26.892 96.2638 26.508C95.9224 26.1133 95.6611 25.676 95.4798 25.196C95.3091 24.7053 95.2238 24.1987 95.2238 23.676C95.2238 22.908 95.3998 22.2253 95.7518 21.628C96.1038 21.0307 96.5891 20.5613 97.2078 20.22C97.8371 19.8787 98.5571 19.708 99.3678 19.708C99.9438 19.708 100.45 19.7987 100.888 19.98C101.325 20.1613 101.688 20.4013 101.976 20.7C102.274 20.988 102.498 21.308 102.648 21.66C102.808 22.012 102.888 22.3533 102.888 22.684C102.888 23.2493 102.749 23.66 102.472 23.916C102.205 24.172 101.869 24.3 101.464 24.3H97.2398C97.2504 24.6627 97.3624 24.9773 97.5758 25.244C97.7998 25.5107 98.0771 25.7187 98.4078 25.868C98.7491 26.0067 99.0958 26.076 99.4478 26.076C99.7144 26.076 99.9491 26.06 100.152 26.028C100.365 25.996 100.546 25.9587 100.696 25.916C100.845 25.8627 100.973 25.8093 101.08 25.756C101.197 25.7027 101.304 25.6547 101.4 25.612C101.496 25.5693 101.586 25.5427 101.672 25.532C101.789 25.5213 101.906 25.548 102.024 25.612C102.141 25.676 102.237 25.788 102.312 25.948C102.376 26.0547 102.418 26.156 102.44 26.252C102.472 26.3373 102.488 26.4227 102.488 26.508C102.488 26.7213 102.36 26.924 102.104 27.116C101.848 27.2973 101.485 27.4467 101.016 27.564C100.557 27.692 100.013 27.756 99.3838 27.756ZM97.2398 23.164H100.52C100.701 23.164 100.84 23.1373 100.936 23.084C101.032 23.02 101.08 22.892 101.08 22.7C101.08 22.4547 101.005 22.236 100.856 22.044C100.706 21.8413 100.504 21.6867 100.248 21.58C99.9918 21.4627 99.6931 21.404 99.3518 21.404C98.9571 21.404 98.5998 21.484 98.2798 21.644C97.9598 21.7933 97.7038 22.0013 97.5118 22.268C97.3304 22.5347 97.2398 22.8333 97.2398 23.164ZM110.782 27.66C110.494 27.66 110.281 27.6173 110.142 27.532C110.014 27.4467 109.934 27.3293 109.902 27.18C109.87 27.02 109.854 26.8547 109.854 26.684V18.908C109.854 18.5133 109.908 18.1507 110.014 17.82C110.121 17.4787 110.292 17.1853 110.526 16.94C110.761 16.6947 111.065 16.5027 111.438 16.364C111.812 16.2147 112.265 16.14 112.798 16.14C112.98 16.14 113.14 16.1613 113.278 16.204C113.428 16.236 113.545 16.316 113.63 16.444C113.726 16.572 113.774 16.7907 113.774 17.1C113.774 17.388 113.726 17.6013 113.63 17.74C113.545 17.8787 113.428 17.964 113.278 17.996C113.129 18.028 112.964 18.044 112.782 18.044C112.601 18.044 112.441 18.0547 112.302 18.076C112.174 18.0867 112.068 18.1187 111.982 18.172C111.908 18.2253 111.849 18.3107 111.806 18.428C111.774 18.5453 111.758 18.6947 111.758 18.876V26.716C111.758 26.8867 111.737 27.0467 111.694 27.196C111.662 27.3347 111.577 27.4467 111.438 27.532C111.3 27.6173 111.081 27.66 110.782 27.66ZM109.198 19.932L110.846 19.948L113.054 19.884C113.236 19.884 113.396 19.9053 113.534 19.948C113.684 19.98 113.801 20.0653 113.886 20.204C113.972 20.332 114.014 20.5453 114.014 20.844C114.014 21.1213 113.972 21.3293 113.886 21.468C113.801 21.6067 113.689 21.6973 113.55 21.74C113.412 21.772 113.252 21.788 113.07 21.788L110.926 21.756L109.15 21.772C108.884 21.7613 108.697 21.6867 108.59 21.548C108.494 21.3987 108.446 21.1587 108.446 20.828C108.446 20.5187 108.505 20.2947 108.622 20.156C108.75 20.0067 108.942 19.932 109.198 19.932ZM116.616 27.66C116.328 27.66 116.115 27.612 115.976 27.516C115.848 27.4307 115.768 27.3133 115.736 27.164C115.704 27.0147 115.688 26.8493 115.688 26.668V20.732C115.688 20.54 115.704 20.3747 115.736 20.236C115.768 20.0867 115.848 19.9747 115.976 19.9C116.115 19.8147 116.333 19.772 116.632 19.772C116.92 19.772 117.128 19.8093 117.256 19.884C117.395 19.9587 117.48 20.0547 117.512 20.172C117.555 20.2787 117.576 20.3853 117.576 20.492L117.448 20.78C117.501 20.6947 117.576 20.5933 117.672 20.476C117.768 20.348 117.896 20.2253 118.056 20.108C118.216 19.98 118.408 19.8787 118.632 19.804C118.856 19.7187 119.123 19.676 119.432 19.676C119.56 19.676 119.693 19.692 119.832 19.724C119.981 19.7453 120.125 19.7827 120.264 19.836C120.413 19.8787 120.547 19.9373 120.664 20.012C120.781 20.0867 120.872 20.1773 120.936 20.284C121 20.38 121.032 20.492 121.032 20.62C121.032 20.9613 120.947 21.2493 120.776 21.484C120.605 21.7187 120.403 21.836 120.168 21.836C120.008 21.836 119.891 21.82 119.816 21.788C119.741 21.756 119.677 21.7187 119.624 21.676C119.581 21.6333 119.512 21.596 119.416 21.564C119.331 21.532 119.192 21.516 119 21.516C118.84 21.516 118.675 21.5427 118.504 21.596C118.344 21.6493 118.195 21.7293 118.056 21.836C117.917 21.9427 117.805 22.0813 117.72 22.252C117.635 22.412 117.592 22.5987 117.592 22.812V26.7C117.592 26.8813 117.576 27.0467 117.544 27.196C117.512 27.3347 117.427 27.4467 117.288 27.532C117.149 27.6173 116.925 27.66 116.616 27.66ZM126.16 27.756C125.648 27.756 125.147 27.66 124.656 27.468C124.176 27.2653 123.739 26.9827 123.344 26.62C122.96 26.2573 122.651 25.8307 122.416 25.34C122.192 24.8493 122.08 24.3107 122.08 23.724C122.08 23.1587 122.187 22.6307 122.4 22.14C122.613 21.6493 122.907 21.2173 123.28 20.844C123.653 20.4707 124.08 20.1827 124.56 19.98C125.051 19.7667 125.573 19.66 126.128 19.66C126.875 19.66 127.552 19.8413 128.16 20.204C128.768 20.556 129.253 21.036 129.616 21.644C129.979 22.252 130.16 22.94 130.16 23.708C130.16 24.316 130.048 24.8707 129.824 25.372C129.6 25.8627 129.296 26.2893 128.912 26.652C128.528 27.004 128.096 27.276 127.616 27.468C127.147 27.66 126.661 27.756 126.16 27.756ZM126.128 25.868C126.48 25.868 126.816 25.7827 127.136 25.612C127.467 25.4307 127.733 25.1747 127.936 24.844C128.149 24.5133 128.256 24.124 128.256 23.676C128.256 23.26 128.16 22.892 127.968 22.572C127.787 22.252 127.536 22.0013 127.216 21.82C126.896 21.6387 126.528 21.548 126.112 21.548C125.717 21.548 125.36 21.644 125.04 21.836C124.72 22.0173 124.464 22.2733 124.272 22.604C124.091 22.924 124 23.2867 124 23.692C124 24.14 124.101 24.5293 124.304 24.86C124.507 25.18 124.768 25.4307 125.088 25.612C125.419 25.7827 125.765 25.868 126.128 25.868ZM132.826 27.644C132.538 27.644 132.324 27.6013 132.186 27.516C132.058 27.4307 131.978 27.3133 131.946 27.164C131.914 27.0147 131.898 26.8547 131.898 26.684V20.7C131.898 20.5293 131.914 20.3747 131.946 20.236C131.978 20.0973 132.063 19.9853 132.202 19.9C132.34 19.8147 132.559 19.772 132.858 19.772C133.167 19.772 133.391 19.836 133.53 19.964C133.679 20.092 133.754 20.2947 133.754 20.572L133.61 21.02C133.663 20.9027 133.754 20.7747 133.882 20.636C134.01 20.4973 134.164 20.3587 134.346 20.22C134.538 20.0813 134.751 19.9693 134.986 19.884C135.22 19.7987 135.466 19.756 135.722 19.756C136.074 19.756 136.394 19.8147 136.682 19.932C136.98 20.0493 137.242 20.22 137.466 20.444C137.7 20.668 137.903 20.94 138.074 21.26C138.255 20.9827 138.458 20.732 138.682 20.508C138.906 20.2733 139.167 20.092 139.466 19.964C139.764 19.8253 140.1 19.756 140.474 19.756C141.092 19.756 141.61 19.9107 142.026 20.22C142.452 20.5293 142.772 20.972 142.986 21.548C143.21 22.1133 143.322 22.7907 143.322 23.58V26.684C143.322 26.8653 143.3 27.0307 143.258 27.18C143.226 27.3187 143.14 27.4307 143.002 27.516C142.874 27.6013 142.66 27.644 142.362 27.644C142.063 27.644 141.844 27.596 141.706 27.5C141.567 27.4147 141.482 27.3027 141.45 27.164C141.418 27.0147 141.402 26.8493 141.402 26.668V23.564C141.402 23.1693 141.354 22.828 141.258 22.54C141.162 22.252 141.018 22.028 140.826 21.868C140.644 21.708 140.404 21.628 140.106 21.628C139.786 21.628 139.508 21.708 139.274 21.868C139.05 22.0173 138.874 22.236 138.746 22.524C138.618 22.812 138.554 23.164 138.554 23.58V26.7C138.554 26.8813 138.527 27.052 138.474 27.212C138.42 27.3613 138.314 27.4733 138.154 27.548C138.004 27.6333 137.786 27.6653 137.498 27.644C137.231 27.6333 137.034 27.58 136.906 27.484C136.788 27.388 136.714 27.2707 136.682 27.132C136.66 26.9827 136.65 26.828 136.65 26.668V23.564C136.65 23.1693 136.602 22.828 136.506 22.54C136.41 22.2413 136.266 22.0173 136.074 21.868C135.892 21.708 135.647 21.628 135.338 21.628C135.007 21.628 134.724 21.7133 134.49 21.884C134.266 22.0547 134.095 22.284 133.978 22.572C133.86 22.86 133.802 23.1907 133.802 23.564V26.7C133.802 26.8707 133.78 27.0307 133.738 27.18C133.706 27.3293 133.62 27.4413 133.482 27.516C133.354 27.6013 133.135 27.644 132.826 27.644ZM155.298 27.724C154.498 27.724 153.762 27.5853 153.09 27.308C152.418 27.02 151.836 26.6147 151.346 26.092C150.855 25.5693 150.476 24.956 150.21 24.252C149.943 23.5373 149.81 22.748 149.81 21.884C149.81 21.0733 149.948 20.332 150.226 19.66C150.503 18.988 150.892 18.4067 151.394 17.916C151.895 17.4147 152.487 17.0253 153.17 16.748C153.863 16.4707 154.62 16.332 155.442 16.332C155.783 16.332 156.135 16.364 156.498 16.428C156.86 16.4813 157.212 16.572 157.554 16.7C157.895 16.8173 158.194 16.9667 158.45 17.148C158.652 17.276 158.823 17.4093 158.962 17.548C159.111 17.676 159.191 17.8253 159.202 17.996C159.212 18.092 159.196 18.1987 159.154 18.316C159.111 18.4227 159.047 18.5347 158.962 18.652C158.844 18.8333 158.716 18.9667 158.578 19.052C158.45 19.1373 158.322 19.18 158.194 19.18C158.119 19.18 158.028 19.1533 157.922 19.1C157.815 19.036 157.671 18.9507 157.49 18.844C157.351 18.748 157.17 18.6573 156.946 18.572C156.722 18.4867 156.476 18.4173 156.21 18.364C155.943 18.3107 155.666 18.284 155.378 18.284C154.663 18.284 154.034 18.4333 153.49 18.732C152.946 19.0307 152.519 19.4573 152.21 20.012C151.911 20.556 151.762 21.196 151.762 21.932C151.762 22.6893 151.916 23.356 152.226 23.932C152.535 24.508 152.956 24.9613 153.49 25.292C154.034 25.612 154.658 25.772 155.362 25.772C155.607 25.772 155.852 25.756 156.098 25.724C156.354 25.692 156.599 25.644 156.834 25.58C157.079 25.516 157.303 25.436 157.506 25.34V22.812H155.234C155.084 22.812 154.946 22.796 154.818 22.764C154.7 22.732 154.604 22.6573 154.53 22.54C154.466 22.4227 154.434 22.2307 154.434 21.964C154.434 21.6867 154.471 21.4893 154.546 21.372C154.62 21.2547 154.716 21.18 154.834 21.148C154.962 21.116 155.1 21.1 155.25 21.1H158.514C158.791 21.1 158.994 21.148 159.122 21.244C159.25 21.34 159.335 21.4627 159.378 21.612C159.42 21.7507 159.442 21.9107 159.442 22.092V25.82C159.442 26.0333 159.335 26.252 159.122 26.476C158.919 26.7 158.631 26.908 158.258 27.1C158.012 27.228 157.73 27.34 157.41 27.436C157.1 27.5213 156.764 27.5907 156.402 27.644C156.05 27.6973 155.682 27.724 155.298 27.724ZM168.132 27.628C167.823 27.628 167.593 27.5693 167.444 27.452C167.295 27.3347 167.22 27.1747 167.22 26.972L167.332 26.444C167.247 26.5827 167.103 26.748 166.9 26.94C166.697 27.1213 166.431 27.2867 166.1 27.436C165.769 27.5747 165.369 27.644 164.9 27.644C164.399 27.644 163.924 27.5427 163.476 27.34C163.039 27.1267 162.649 26.8387 162.308 26.476C161.977 26.1027 161.711 25.6813 161.508 25.212C161.316 24.732 161.22 24.22 161.22 23.676C161.22 23.1533 161.316 22.6627 161.508 22.204C161.711 21.7347 161.983 21.3187 162.324 20.956C162.665 20.5933 163.055 20.3107 163.492 20.108C163.94 19.8947 164.409 19.788 164.9 19.788C165.337 19.788 165.705 19.8467 166.004 19.964C166.313 20.0813 166.575 20.2307 166.788 20.412C167.001 20.5827 167.177 20.764 167.316 20.956L167.22 20.492C167.22 20.2573 167.295 20.0813 167.444 19.964C167.593 19.836 167.828 19.772 168.148 19.772C168.447 19.772 168.66 19.82 168.788 19.916C168.916 20.0013 168.996 20.124 169.028 20.284C169.06 20.4333 169.076 20.604 169.076 20.796V26.652C169.076 26.8333 169.06 26.9987 169.028 27.148C168.996 27.2973 168.911 27.4147 168.772 27.5C168.644 27.5853 168.431 27.628 168.132 27.628ZM165.188 25.772C165.551 25.772 165.876 25.6813 166.164 25.5C166.452 25.3187 166.681 25.0733 166.852 24.764C167.033 24.444 167.124 24.092 167.124 23.708C167.124 23.292 167.033 22.9293 166.852 22.62C166.671 22.3107 166.431 22.0707 166.132 21.9C165.844 21.7187 165.519 21.628 165.156 21.628C164.761 21.628 164.409 21.724 164.1 21.916C163.791 22.0973 163.545 22.348 163.364 22.668C163.193 22.9773 163.108 23.3293 163.108 23.724C163.108 24.108 163.199 24.4547 163.38 24.764C163.561 25.0733 163.807 25.3187 164.116 25.5C164.436 25.6813 164.793 25.772 165.188 25.772ZM177.689 27.644C177.316 27.644 176.98 27.6067 176.681 27.532C176.393 27.4573 176.137 27.3453 175.913 27.196C175.689 27.036 175.503 26.844 175.353 26.62C175.204 26.396 175.092 26.1347 175.017 25.836C174.943 25.5267 174.905 25.1853 174.905 24.812V17.1C174.905 16.9187 174.921 16.7587 174.953 16.62C174.985 16.4707 175.071 16.3533 175.209 16.268C175.348 16.1827 175.567 16.14 175.865 16.14C176.153 16.14 176.367 16.1827 176.505 16.268C176.644 16.3533 176.729 16.4707 176.761 16.62C176.804 16.7587 176.825 16.9133 176.825 17.084V24.86C176.825 25.0093 176.841 25.1373 176.873 25.244C176.905 25.3507 176.953 25.4413 177.017 25.516C177.092 25.5907 177.183 25.644 177.289 25.676C177.407 25.708 177.54 25.724 177.689 25.724C177.935 25.724 178.127 25.756 178.265 25.82C178.404 25.884 178.505 25.9853 178.569 26.124C178.633 26.2627 178.665 26.4493 178.665 26.684C178.665 26.908 178.628 27.0947 178.553 27.244C178.489 27.3827 178.383 27.484 178.233 27.548C178.095 27.612 177.913 27.644 177.689 27.644ZM173.641 27.644C173.289 27.644 172.975 27.6067 172.697 27.532C172.42 27.468 172.18 27.3613 171.977 27.212C171.775 27.0627 171.604 26.876 171.465 26.652C171.337 26.428 171.241 26.1667 171.177 25.868C171.113 25.5587 171.081 25.2067 171.081 24.812V17.1C171.081 16.9187 171.097 16.7587 171.129 16.62C171.161 16.4707 171.247 16.3533 171.385 16.268C171.524 16.1827 171.737 16.14 172.025 16.14C172.324 16.14 172.537 16.1827 172.665 16.268C172.804 16.3533 172.889 16.4707 172.921 16.62C172.964 16.7587 172.985 16.9133 172.985 17.084V24.86C172.985 25.0627 173.012 25.228 173.065 25.356C173.129 25.484 173.209 25.58 173.305 25.644C173.401 25.6973 173.513 25.724 173.641 25.724C173.844 25.724 174.004 25.756 174.121 25.82C174.239 25.884 174.319 25.9853 174.361 26.124C174.415 26.2627 174.441 26.4493 174.441 26.684C174.441 26.908 174.415 27.0947 174.361 27.244C174.308 27.3827 174.223 27.484 174.105 27.548C173.988 27.612 173.833 27.644 173.641 27.644ZM184.184 27.756C183.49 27.756 182.882 27.644 182.36 27.42C181.848 27.196 181.416 26.892 181.064 26.508C180.722 26.1133 180.461 25.676 180.28 25.196C180.109 24.7053 180.024 24.1987 180.024 23.676C180.024 22.908 180.2 22.2253 180.552 21.628C180.904 21.0307 181.389 20.5613 182.008 20.22C182.637 19.8787 183.357 19.708 184.168 19.708C184.744 19.708 185.25 19.7987 185.688 19.98C186.125 20.1613 186.488 20.4013 186.776 20.7C187.074 20.988 187.298 21.308 187.448 21.66C187.608 22.012 187.688 22.3533 187.688 22.684C187.688 23.2493 187.549 23.66 187.272 23.916C187.005 24.172 186.669 24.3 186.264 24.3H182.04C182.05 24.6627 182.162 24.9773 182.376 25.244C182.6 25.5107 182.877 25.7187 183.208 25.868C183.549 26.0067 183.896 26.076 184.248 26.076C184.514 26.076 184.749 26.06 184.952 26.028C185.165 25.996 185.346 25.9587 185.496 25.916C185.645 25.8627 185.773 25.8093 185.88 25.756C185.997 25.7027 186.104 25.6547 186.2 25.612C186.296 25.5693 186.386 25.5427 186.472 25.532C186.589 25.5213 186.706 25.548 186.824 25.612C186.941 25.676 187.037 25.788 187.112 25.948C187.176 26.0547 187.218 26.156 187.24 26.252C187.272 26.3373 187.288 26.4227 187.288 26.508C187.288 26.7213 187.16 26.924 186.904 27.116C186.648 27.2973 186.285 27.4467 185.816 27.564C185.357 27.692 184.813 27.756 184.184 27.756ZM182.04 23.164H185.32C185.501 23.164 185.64 23.1373 185.736 23.084C185.832 23.02 185.88 22.892 185.88 22.7C185.88 22.4547 185.805 22.236 185.656 22.044C185.506 21.8413 185.304 21.6867 185.048 21.58C184.792 21.4627 184.493 21.404 184.152 21.404C183.757 21.404 183.4 21.484 183.08 21.644C182.76 21.7933 182.504 22.0013 182.312 22.268C182.13 22.5347 182.04 22.8333 182.04 23.164ZM190.425 27.66C190.137 27.66 189.923 27.612 189.785 27.516C189.657 27.4307 189.577 27.3133 189.545 27.164C189.513 27.0147 189.497 26.8493 189.497 26.668V20.732C189.497 20.54 189.513 20.3747 189.545 20.236C189.577 20.0867 189.657 19.9747 189.785 19.9C189.923 19.8147 190.142 19.772 190.441 19.772C190.729 19.772 190.937 19.8093 191.065 19.884C191.203 19.9587 191.289 20.0547 191.321 20.172C191.363 20.2787 191.385 20.3853 191.385 20.492L191.257 20.78C191.31 20.6947 191.385 20.5933 191.481 20.476C191.577 20.348 191.705 20.2253 191.865 20.108C192.025 19.98 192.217 19.8787 192.441 19.804C192.665 19.7187 192.931 19.676 193.241 19.676C193.369 19.676 193.502 19.692 193.641 19.724C193.79 19.7453 193.934 19.7827 194.073 19.836C194.222 19.8787 194.355 19.9373 194.473 20.012C194.59 20.0867 194.681 20.1773 194.745 20.284C194.809 20.38 194.841 20.492 194.841 20.62C194.841 20.9613 194.755 21.2493 194.585 21.484C194.414 21.7187 194.211 21.836 193.977 21.836C193.817 21.836 193.699 21.82 193.625 21.788C193.55 21.756 193.486 21.7187 193.433 21.676C193.39 21.6333 193.321 21.596 193.225 21.564C193.139 21.532 193.001 21.516 192.809 21.516C192.649 21.516 192.483 21.5427 192.313 21.596C192.153 21.6493 192.003 21.7293 191.865 21.836C191.726 21.9427 191.614 22.0813 191.529 22.252C191.443 22.412 191.401 22.5987 191.401 22.812V26.7C191.401 26.8813 191.385 27.0467 191.353 27.196C191.321 27.3347 191.235 27.4467 191.097 27.532C190.958 27.6173 190.734 27.66 190.425 27.66ZM198.257 30.812C197.916 30.6627 197.719 30.492 197.665 30.3C197.612 30.1187 197.66 29.8733 197.809 29.564L201.937 20.316C202.087 19.9747 202.247 19.772 202.417 19.708C202.588 19.6333 202.849 19.6707 203.201 19.82C203.532 19.9693 203.724 20.1347 203.777 20.316C203.841 20.4973 203.804 20.7427 203.665 21.052L199.505 30.348C199.367 30.6893 199.212 30.8867 199.041 30.94C198.871 31.004 198.609 30.9613 198.257 30.812ZM199.745 26.892L196.049 21.212C195.857 20.924 195.777 20.684 195.809 20.492C195.852 20.3 196.023 20.1133 196.321 19.932C196.652 19.7293 196.908 19.6493 197.089 19.692C197.281 19.7347 197.473 19.9053 197.665 20.204L200.593 24.764L199.745 26.892Z" fill="#004D5C"/>
</svg>
