<svg width="27" height="26" viewBox="0 0 27 26" fill="none" xmlns="http://www.w3.org/2000/svg">
<path d="M5.52651 14.5194C6.78015 13.9816 7.06744 11.8463 6.16816 9.75014C5.26887 7.65397 3.52354 6.3907 2.2699 6.92853C1.01625 7.46636 0.729016 9.60163 1.6283 11.6978C2.52759 13.794 4.27286 15.0573 5.52651 14.5194Z" fill="#00A7C7"/>
<path d="M10.1416 8.51836C11.3924 8.33076 12.1427 6.42092 11.8174 4.2526C11.4922 2.08429 10.2147 0.47859 8.96393 0.666184C7.71318 0.853778 6.96286 2.76363 7.28808 4.93195C7.6133 7.10026 8.8909 8.70595 10.1416 8.51836Z" fill="#00A7C7"/>
<path d="M19.6788 4.467C19.9289 2.28874 19.113 0.405985 17.8566 0.261717C16.6001 0.117449 15.3788 1.76629 15.1286 3.94455C14.8785 6.12281 15.6944 8.00562 16.9508 8.14989C18.2073 8.29416 19.4286 6.64525 19.6788 4.467Z" fill="#00A7C7"/>
<path d="M25.3418 10.749C26.031 8.66753 25.6164 6.65789 24.4158 6.26036C23.2151 5.86282 21.6831 7.22793 20.994 9.30937C20.3048 11.3908 20.7194 13.4004 21.92 13.7979C23.1207 14.1955 24.6526 12.8304 25.3418 10.749Z" fill="#00A7C7"/>
<path d="M13.5092 25.5098C16.9941 25.5098 19.8193 22.1519 19.8193 18.0098C19.8193 13.8676 16.9941 10.5098 13.5092 10.5098C10.0243 10.5098 7.19922 13.8676 7.19922 18.0098C7.19922 22.1519 10.0243 25.5098 13.5092 25.5098Z" fill="#00A7C7"/>
</svg>
