<svg width="20" height="20" viewBox="0 0 20 20" fill="none" xmlns="http://www.w3.org/2000/svg">
<path d="M13.6868 3.83757L14.5118 3.01258C15.1953 2.32914 16.3033 2.32914 16.9868 3.01258C17.6702 3.69603 17.6702 4.80411 16.9868 5.48756L16.1618 6.31255M13.6868 3.83757L8.13733 9.387C7.71441 9.81 7.41438 10.3398 7.26932 10.9201L6.66602 13.3333L9.07927 12.73C9.65952 12.585 10.1893 12.2849 10.6123 11.862L16.1618 6.31255M13.6868 3.83757L16.1618 6.31255" stroke="#525252" stroke-width="1.5" stroke-linejoin="round"/>
<path d="M15.8333 11.2498C15.8333 13.9894 15.8332 15.3592 15.0767 16.2812C14.9382 16.4499 14.7834 16.6047 14.6146 16.7432C13.6927 17.4998 12.3228 17.4998 9.58325 17.4998H9.16667C6.02397 17.4998 4.45263 17.4998 3.47632 16.5235C2.50002 15.5473 2.5 13.9758 2.5 10.8332V10.4165C2.5 7.67694 2.5 6.30716 3.25662 5.3852C3.39514 5.21642 3.54992 5.06165 3.7187 4.92312C4.64066 4.1665 6.01043 4.1665 8.75 4.1665" stroke="#525252" stroke-width="1.5" stroke-linecap="round" stroke-linejoin="round"/>
</svg>
