<svg width="20" height="20" viewBox="0 0 20 20" fill="none" xmlns="http://www.w3.org/2000/svg">
<path d="M10.0013 18.3332C14.6037 18.3332 18.3346 14.6022 18.3346 9.99984C18.3346 5.39746 14.6037 1.6665 10.0013 1.6665C5.39893 1.6665 1.66797 5.39746 1.66797 9.99984C1.66797 14.6022 5.39893 18.3332 10.0013 18.3332Z" stroke="#00A7C7" stroke-width="1.5"/>
<path d="M6.66797 9.99984C6.66797 14.9998 10.0013 18.3332 10.0013 18.3332C10.0013 18.3332 13.3346 14.9998 13.3346 9.99984C13.3346 4.99984 10.0013 1.6665 10.0013 1.6665C10.0013 1.6665 6.66797 4.99984 6.66797 9.99984Z" stroke="#00A7C7" stroke-width="1.5" stroke-linejoin="round"/>
<path d="M17.5 12.5H2.5" stroke="#00A7C7" stroke-width="1.5" stroke-linecap="round" stroke-linejoin="round"/>
<path d="M17.5 7.5H2.5" stroke="#00A7C7" stroke-width="1.5" stroke-linecap="round" stroke-linejoin="round"/>
</svg>
