<svg width="24" height="25" viewBox="0 0 24 25" fill="none" xmlns="http://www.w3.org/2000/svg">
<g clip-path="url(#clip0_10055_9216)">
<path d="M23.9875 12.5268C23.9875 11.5193 23.9059 10.784 23.7292 10.0215H12.2393V14.5692H18.9836C18.8477 15.6994 18.1134 17.4015 16.4817 18.5452L16.4588 18.6974L20.0917 21.5156L20.3434 21.5408C22.6549 19.403 23.9875 16.2577 23.9875 12.5268Z" fill="#4285F4"/>
<path d="M12.2391 24.5091C15.5433 24.5091 18.3171 23.4198 20.3432 21.5408L16.4815 18.5452C15.4481 19.2668 14.0611 19.7706 12.2391 19.7706C9.00291 19.7706 6.25622 17.6329 5.27711 14.6782L5.13359 14.6904L1.35604 17.6179L1.30664 17.7554C3.31906 21.7586 7.45273 24.5091 12.2391 24.5091Z" fill="#34A853"/>
<path d="M5.27678 14.6781C5.01843 13.9156 4.86891 13.0986 4.86891 12.2545C4.86891 11.4102 5.01843 10.5933 5.26318 9.83076L5.25634 9.66836L1.43145 6.69385L1.30631 6.75345C0.476896 8.41465 0.000976562 10.2801 0.000976562 12.2545C0.000976562 14.2288 0.476896 16.0942 1.30631 17.7554L5.27678 14.6781Z" fill="#FBBC05"/>
<path d="M12.2391 4.73841C14.5371 4.73841 16.0871 5.73238 16.971 6.56303L20.4248 3.18619C18.3036 1.21185 15.5433 0 12.2391 0C7.45273 0 3.31906 2.75045 1.30664 6.75358L5.26351 9.83088C6.25622 6.87618 9.00291 4.73841 12.2391 4.73841Z" fill="#EB4335"/>
</g>
<defs>
<clipPath id="clip0_10055_9216">
<rect width="24" height="24.5936" fill="white"/>
</clipPath>
</defs>
</svg>
