<svg width="44" height="44" viewBox="0 0 44 44" fill="none" xmlns="http://www.w3.org/2000/svg">
<rect width="44" height="44" rx="22" fill="#B0E9F4"/>
<g clip-path="url(#clip0_10398_11090)">
<path d="M20.6729 21.8334C20.7637 21.8321 20.7933 21.8608 20.8047 21.8734C20.8245 21.8956 20.8457 21.9398 20.8457 22.0004C20.8456 22.061 20.8246 22.1053 20.8047 22.1273C20.7932 22.14 20.7635 22.1677 20.6729 22.1664H20.6523L20.6318 22.1674V22.1683H20.624C20.6207 22.1686 20.6161 22.1689 20.6113 22.1693C20.6015 22.1702 20.5885 22.1714 20.5732 22.1732C20.5426 22.1768 20.5008 22.1827 20.4521 22.1918C20.3587 22.2092 20.2205 22.2421 20.082 22.306L20.0547 22.3197C20.0121 22.3426 19.8023 22.435 19.666 22.6371C19.5285 22.8412 19.499 23.0869 19.499 23.3334V24.5004H24.5137L26.3877 25.7494L26.3936 25.7533C26.9112 26.089 27.499 26.4479 27.499 27.3334V31.1664H27.9922C27.9973 31.1668 28.0073 31.1681 28.0205 31.1703C28.0503 31.1752 28.0824 31.1846 28.1084 31.1976C28.1322 31.2096 28.1416 31.2191 28.1455 31.225C28.1473 31.2277 28.165 31.2542 28.165 31.3334C28.165 31.4125 28.1473 31.439 28.1455 31.4418C28.1416 31.4477 28.1322 31.4572 28.1084 31.4691C28.0824 31.4821 28.0503 31.4915 28.0205 31.4965C28.0073 31.4987 27.9973 31.5 27.9922 31.5004H27.3652C27.3495 31.4956 27.3056 31.4791 27.2432 31.432C27.1196 31.3388 26.8887 31.097 26.6855 30.4935L25.8066 27.8422L25.6934 27.5004H20.832V31.3295L20.8281 31.3549C20.8232 31.3845 20.8146 31.4168 20.8018 31.4427C20.7897 31.4668 20.7793 31.4759 20.7734 31.4799C20.7707 31.4817 20.7442 31.5004 20.665 31.5004C20.5879 31.5003 20.5614 31.4824 20.5576 31.4799C20.5517 31.4759 20.5413 31.4668 20.5293 31.4427C20.5164 31.4168 20.5069 31.3845 20.502 31.3549C20.4998 31.3416 20.4994 31.3315 20.499 31.3265V28.1127L19.7695 28.4886C19.3711 28.6943 19.0066 28.8334 18.665 28.8334H18.165V31.3295L18.1621 31.3549C18.1572 31.3845 18.1477 31.4168 18.1348 31.4427C18.1228 31.4668 18.1123 31.4759 18.1064 31.4799C18.1027 31.4824 18.0761 31.5003 17.999 31.5004C17.9199 31.5004 17.8934 31.4817 17.8906 31.4799C17.8847 31.4759 17.8743 31.4668 17.8623 31.4427C17.8494 31.4168 17.8409 31.3845 17.8359 31.3549C17.8337 31.3415 17.8324 31.3315 17.832 31.3265V28.6664C17.8321 28.5881 17.8504 28.5621 17.8525 28.559C17.8564 28.5531 17.8648 28.5426 17.8887 28.5306C17.9146 28.5177 17.9468 28.5083 17.9766 28.5033C17.9903 28.501 18.0009 28.5007 18.0059 28.5004H17.999C18.2519 28.5003 18.5068 28.4341 18.7158 28.2484C18.9148 28.0715 19.0133 27.8376 19.0674 27.6215C19.1694 27.2132 19.165 26.6357 19.165 26.0004V23.3334C19.165 22.6528 19.5826 22.1889 19.9238 22.0228L19.9336 22.0179C20.1214 21.9215 20.3082 21.8743 20.4492 21.8519C20.5187 21.8409 20.575 21.8363 20.6113 21.8344C20.6293 21.8334 20.6425 21.8334 20.6494 21.8334H20.6729ZM27.3828 20.5052C27.4228 20.5105 27.4384 20.5185 27.4404 20.5199C27.4463 20.5238 27.4558 20.5332 27.4678 20.557C27.4808 20.583 27.4902 20.6151 27.4951 20.6449C27.4973 20.6581 27.4986 20.6681 27.499 20.6732V21.8334H27.999C28.6581 21.8334 29.1344 21.8428 29.6455 22.3539L31.4717 24.1801C31.4545 24.2611 31.429 24.3541 31.3848 24.4427C31.3311 24.5501 31.2588 24.6429 31.1592 24.7094C31.0627 24.7737 30.9109 24.8334 30.665 24.8334H28.833L26.5635 23.1312L27.1436 20.8119C27.2058 20.6278 27.2946 20.5558 27.3418 20.5258C27.357 20.5161 27.3715 20.5102 27.3828 20.5052ZM19.332 13.8334C21.1541 13.8334 22.8098 14.143 24.3174 14.7562V14.7572C24.6224 14.8809 24.832 15.1907 24.832 15.5199V19.3334C24.832 19.4306 24.7622 19.5004 24.665 19.5004C24.568 19.5002 24.499 19.4305 24.499 19.3334V15.5004H22.165V19.3334C22.165 19.4305 22.096 19.5002 21.999 19.5004C21.9018 19.5004 21.832 19.4306 21.832 19.3334V15.5004H19.499V19.3334C19.499 19.4306 19.4292 19.5004 19.332 19.5004C19.2348 19.5004 19.165 19.4306 19.165 19.3334V15.5004H16.832V19.3334C16.832 19.4306 16.7622 19.5004 16.665 19.5004C16.568 19.5002 16.499 19.4305 16.499 19.3334V15.5004H14.165V19.3334C14.165 19.4305 14.096 19.5002 13.999 19.5004C13.9018 19.5004 13.832 19.4306 13.832 19.3334V15.5199C13.8321 15.1907 14.0417 14.8809 14.3467 14.7572V14.7562C15.8543 14.143 17.51 13.8334 19.332 13.8334Z" fill="#004D5C" stroke="#004D5C"/>
</g>
<defs>
<clipPath id="clip0_10398_11090">
<rect width="20" height="20" fill="white" transform="translate(12 12)"/>
</clipPath>
</defs>
</svg>
