<svg width="24" height="24" viewBox="0 0 24 24" fill="none" xmlns="http://www.w3.org/2000/svg">
<g clip-path="url(#clip0_54619_5857)">
<path d="M11.3115 16.0659C11.5748 16.6542 12.4072 16.6733 12.6943 16.0942L15.0098 11.4624L16.0361 13.5151H21.123L12.5898 22.231C12.2632 22.5668 11.7339 22.5668 11.4072 22.231L2.87793 13.5151H7.2627L7.2666 13.5063L8.65918 10.1772L11.3115 16.0659ZM13.3193 3.35791C15.732 0.898523 19.6741 0.89855 22.082 3.35791L22.1943 3.4751C24.4695 5.80179 24.5692 9.50559 22.54 11.9839H16.9834L15.6943 9.40576C15.412 8.84112 14.6085 8.84112 14.3262 9.40576L12.0439 13.9644L9.3291 7.93408C9.05159 7.32164 8.18027 7.33635 7.92188 7.95361L6.24316 11.9839H1.46094C-0.568054 9.50553 -0.467614 5.80172 1.80762 3.4751L1.80664 3.47412L1.91992 3.36279C4.32785 0.898753 8.27371 0.898753 10.6816 3.36279L11.9893 4.69873L12.001 4.70947L12.0117 4.69873L13.3193 3.35791Z" fill="#EC4899" stroke="#EC4899" stroke-width="0.03125"/>
</g>
<defs>
<clipPath id="clip0_54619_5857">
<rect width="24" height="24" fill="white"/>
</clipPath>
</defs>
</svg>
