<svg width="20" height="20" viewBox="0 0 20 20" fill="none" xmlns="http://www.w3.org/2000/svg">
<path d="M3.55521 15.7039C3.74261 17.0958 4.89547 18.1862 6.29841 18.2507C7.47892 18.305 8.67811 18.3333 9.9987 18.3333C11.3193 18.3333 12.5184 18.305 13.6989 18.2507C15.1019 18.1862 16.2548 17.0958 16.4422 15.7039C16.5645 14.7956 16.6654 13.8647 16.6654 12.9167C16.6654 11.9687 16.5645 11.0378 16.4422 10.1294C16.2548 8.7375 15.1019 7.64707 13.6989 7.58257C12.5184 7.52831 11.3193 7.5 9.9987 7.5C8.67811 7.5 7.47892 7.52831 6.29841 7.58257C4.89547 7.64707 3.74261 8.7375 3.55521 10.1294C3.4329 11.0378 3.33203 11.9687 3.33203 12.9167C3.33203 13.8647 3.4329 14.7956 3.55521 15.7039Z" stroke="#00A7C7" stroke-width="1.5"/>
<path d="M6.25 7.49984V5.4165C6.25 3.34544 7.92893 1.6665 10 1.6665C12.0711 1.6665 13.75 3.34544 13.75 5.4165V7.49984" stroke="#00A7C7" stroke-width="1.5" stroke-linecap="round" stroke-linejoin="round"/>
<path d="M9.99609 12.9165H10.0036" stroke="#00A7C7" stroke-width="2" stroke-linecap="round" stroke-linejoin="round"/>
</svg>
