<svg width="24" height="24" viewBox="0 0 24 24" fill="none" xmlns="http://www.w3.org/2000/svg">
<path d="M14.498 12.4873L14.123 12.3896C13.4942 12.2269 12.9231 11.8926 12.4736 11.4238L12.3682 11.3086L11.998 10.8994L11.6279 11.3086L11.5215 11.4238C11.0723 11.8922 10.5023 12.2268 9.87402 12.3896L9.49902 12.4873V12.874L9.49805 17.0195C9.49805 18.9412 7.96922 20.4937 6.08887 20.499L5.83398 20.4902C3.95538 20.3611 2.48614 18.762 2.5 16.8291V16.8281C2.51177 14.9602 2.73774 13.3231 3.16992 11.9111C4.16609 8.65265 5.18648 6.97097 6.79785 5.80176L6.94531 5.70898C7.1334 5.60576 7.33917 5.54037 7.55078 5.51367L7.76562 5.5H7.7666C8.72068 5.50027 9.49796 6.28467 9.49805 7.25684L9.49902 10.7324V11.5986L10.249 11.165C10.6288 10.9455 10.9449 10.63 11.1641 10.25C11.3832 9.87001 11.4981 9.43866 11.498 9V4C11.498 3.86741 11.5508 3.74025 11.6445 3.64648C11.7383 3.55273 11.8655 3.50002 11.998 3.5C12.1306 3.5 12.2578 3.55274 12.3516 3.64648C12.4453 3.74025 12.498 3.86739 12.498 4V9C12.4981 9.43883 12.6136 9.86997 12.833 10.25C13.0524 10.63 13.368 10.9456 13.748 11.165L14.498 11.5977V7.25684C14.4981 6.28465 15.276 5.5 16.2314 5.5C16.509 5.50005 16.7894 5.56775 17.1016 5.73926L17.2393 5.82812V5.8291C18.8045 6.96494 19.8275 8.64552 20.8281 11.9102C21.2604 13.3236 21.4863 14.9606 21.498 16.8271V16.8281C21.5119 18.7607 20.0425 20.3626 18.1289 20.4922L17.9082 20.499C16.0268 20.4936 14.498 18.941 14.498 17.0195V12.4873Z" fill="#3B82F6" stroke="#3B82F6"/>
</svg>
