<svg width="44" height="44" viewBox="0 0 44 44" fill="none" xmlns="http://www.w3.org/2000/svg">
<rect width="44" height="44" rx="12" fill="#B0E9F4"/>
<path d="M22.0054 20.75H22.0129M25.3349 20.75H25.3424M18.6758 20.75H18.6833" stroke="#004D5C" stroke-width="2" stroke-linecap="round" stroke-linejoin="round"/>
<path d="M13.668 20.75C13.668 20.1077 13.6792 19.4806 13.7005 18.8752C13.7703 16.8973 13.8052 15.9084 14.6097 15.0979C15.4142 14.2873 16.4311 14.2438 18.4648 14.1568C19.5806 14.1091 20.7687 14.0833 22.0013 14.0833C23.2339 14.0833 24.422 14.1091 25.5378 14.1568C27.5716 14.2438 28.5885 14.2873 29.3929 15.0979C30.1974 15.9084 30.2323 16.8973 30.3021 18.8752C30.3234 19.4806 30.3346 20.1077 30.3346 20.75C30.3346 21.3923 30.3234 22.0193 30.3021 22.6247C30.2323 24.6026 30.1974 25.5916 29.3929 26.4021C28.5885 27.2126 27.5716 27.2561 25.5377 27.3431C24.9261 27.3693 24.2928 27.3889 23.6424 27.4012C23.0248 27.4129 22.716 27.4188 22.4446 27.5221C22.1733 27.6255 21.9451 27.8212 21.4884 28.2127L19.6722 29.7701C19.5619 29.8646 19.4215 29.9166 19.2762 29.9166C18.9403 29.9166 18.668 29.6443 18.668 29.3084V27.3516C18.6 27.3488 18.5323 27.3461 18.4648 27.3431C16.431 27.2561 15.4142 27.2126 14.6097 26.4021C13.8052 25.5916 13.7703 24.6026 13.7005 22.6247C13.6792 22.0193 13.668 21.3923 13.668 20.75Z" stroke="#004D5C" stroke-width="1.5" stroke-linecap="round" stroke-linejoin="round"/>
</svg>
