<svg width="20" height="20" viewBox="0 0 20 20" fill="none" xmlns="http://www.w3.org/2000/svg">
<path d="M6.66602 5.8335H13.3327" stroke="#525252" stroke-width="1.5" stroke-linecap="round" stroke-linejoin="round"/>
<path d="M6.66602 9.1665H9.99935" stroke="#525252" stroke-width="1.5" stroke-linecap="round" stroke-linejoin="round"/>
<path d="M10.834 17.9165V17.4998C10.834 15.1428 10.834 13.9643 11.5662 13.2321C12.2985 12.4998 13.477 12.4998 15.834 12.4998H16.2507M16.6673 11.1191V8.33317C16.6673 5.19047 16.6673 3.61913 15.691 2.64281C14.7147 1.6665 13.1433 1.6665 10.0007 1.6665C6.85796 1.6665 5.28661 1.6665 4.31029 2.64281C3.33398 3.61912 3.33398 5.19047 3.33398 8.33317V12.12C3.33398 14.8242 3.33398 16.1763 4.07238 17.0921C4.22155 17.2771 4.39008 17.4456 4.57509 17.5948C5.49091 18.3332 6.843 18.3332 9.54715 18.3332C10.1352 18.3332 10.4291 18.3332 10.6983 18.2382C10.7543 18.2184 10.8092 18.1957 10.8627 18.1701C11.1203 18.0468 11.3282 17.839 11.7439 17.4233L15.691 13.4762C16.1727 12.9944 16.4136 12.7536 16.5405 12.4473C16.6673 12.141 16.6673 11.8003 16.6673 11.1191Z" stroke="#525252" stroke-width="1.5" stroke-linecap="round" stroke-linejoin="round"/>
</svg>
