<svg width="32" height="32" viewBox="0 0 32 32" fill="none" xmlns="http://www.w3.org/2000/svg">
<rect x="0.5" y="0.5" width="31" height="31" rx="15.5" fill="#F5F5F5"/>
<rect x="0.5" y="0.5" width="31" height="31" rx="15.5" stroke="#D3D3D6"/>
<path d="M18.3327 20C18.3327 21.2887 17.288 22.3333 15.9993 22.3333C14.7107 22.3333 13.666 21.2887 13.666 20" stroke="#525252" stroke-width="1.5" stroke-linecap="round" stroke-linejoin="round"/>
<path d="M20.8207 19.9998H11.1792C10.528 19.9998 10 19.4718 10 18.8206C10 18.5078 10.1242 18.2079 10.3454 17.9867L10.7475 17.5846C11.1226 17.2095 11.3333 16.7008 11.3333 16.1704V14.3332C11.3333 11.7558 13.4227 9.6665 16 9.6665C18.5773 9.6665 20.6667 11.7558 20.6667 14.3332V16.1704C20.6667 16.7008 20.8774 17.2095 21.2525 17.5846L21.6546 17.9867C21.8757 18.2079 22 18.5078 22 18.8206C22 19.4718 21.472 19.9998 20.8207 19.9998Z" stroke="#525252" stroke-width="1.5" stroke-linecap="round" stroke-linejoin="round"/>
</svg>
