<svg width="44" height="44" viewBox="0 0 44 44" fill="none" xmlns="http://www.w3.org/2000/svg">
<rect width="44" height="44" rx="22" fill="#B0E9F4"/>
<path d="M22 21.0718C23.5148 21.0718 24.6465 21.8766 25.3877 22.9224L25.3887 22.9233C26.129 23.962 26.4999 25.2559 26.5 26.2856C26.5 27.3024 25.9351 28.0473 25.1475 28.5435L24.9873 28.6401C24.1236 29.1313 23.014 29.3569 22 29.3569C20.9865 29.3569 19.877 29.1293 19.0127 28.6392H19.0117C18.1415 28.1472 17.5 27.3706 17.5 26.2856C17.5001 25.2559 17.871 23.962 18.6113 22.9233V22.9224C19.3544 21.8771 20.487 21.0718 22 21.0718ZM14.1426 21.0718C14.6288 21.0718 15.0466 21.3679 15.3311 21.7944V21.7954C15.6159 22.2222 15.7861 22.8012 15.7861 23.4292C15.7861 23.9788 15.656 24.4907 15.4326 24.896L15.3311 25.063C15.0471 25.4901 14.6294 25.7856 14.1426 25.7856C13.6565 25.7855 13.2395 25.4894 12.9551 25.063H12.9541C12.6692 24.6363 12.5001 24.0572 12.5 23.4292C12.5 22.8013 12.6693 22.2222 12.9541 21.7954L12.9551 21.7944C13.239 21.3674 13.6559 21.0719 14.1426 21.0718ZM29.8574 21.0718C30.3435 21.0719 30.7605 21.368 31.0449 21.7944L31.0459 21.7954C31.3307 22.2222 31.5 22.8013 31.5 23.4292C31.4999 24.0572 31.3308 24.6363 31.0459 25.063H31.0449C30.761 25.49 30.3441 25.7855 29.8574 25.7856C29.3711 25.7856 28.9534 25.4896 28.6689 25.063C28.3841 24.6363 28.2139 24.0572 28.2139 23.4292C28.2139 22.8012 28.3841 22.2222 28.6689 21.7954V21.7944C28.9529 21.3674 29.3706 21.0718 29.8574 21.0718ZM18.4287 14.6431C18.9149 14.6431 19.3328 14.9391 19.6172 15.3657V15.3667C19.902 15.7935 20.0713 16.3725 20.0713 17.0005C20.0712 17.6285 19.9021 18.2075 19.6172 18.6343L19.6162 18.6353C19.3323 19.0621 18.9153 19.3569 18.4287 19.3569C18.0032 19.3569 17.6306 19.1302 17.3535 18.7876L17.2402 18.6343C16.9553 18.2075 16.7862 17.6285 16.7861 17.0005C16.7861 16.3724 16.9554 15.7935 17.2402 15.3667V15.3657C17.5242 14.9386 17.9419 14.6431 18.4287 14.6431ZM25.5713 14.6431C26.0575 14.6431 26.4753 14.9392 26.7598 15.3657V15.3667C27.0446 15.7935 27.2139 16.3724 27.2139 17.0005C27.2138 17.6285 27.0447 18.2075 26.7598 18.6343V18.6353C26.4758 19.0623 26.058 19.3569 25.5713 19.3569C25.085 19.3569 24.6673 19.0609 24.3828 18.6343L24.2812 18.4673C24.058 18.062 23.9288 17.55 23.9287 17.0005C23.9287 16.3725 24.098 15.7935 24.3828 15.3667L24.3838 15.3657C24.6677 14.9387 25.0846 14.6431 25.5713 14.6431Z" fill="#004D5C" stroke="#004D5C"/>
</svg>
