<svg width="20" height="20" viewBox="0 0 20 20" fill="none" xmlns="http://www.w3.org/2000/svg">
<g clip-path="url(#clip0_10775_8249)">
<path d="M2.14342 13.5712C2.93199 13.5712 3.57199 12.6112 3.57199 11.4284C3.57199 10.2455 2.93199 9.2855 2.14342 9.2855C1.35484 9.2855 0.714844 10.2455 0.714844 11.4284C0.714844 12.6112 1.35484 13.5712 2.14342 13.5712ZM6.42913 7.14265C7.2177 7.14265 7.8577 6.18265 7.8577 4.99979C7.8577 3.81693 7.2177 2.85693 6.42913 2.85693C5.64056 2.85693 5.00056 3.81693 5.00056 4.99979C5.00056 6.18265 5.64056 7.14265 6.42913 7.14265ZM13.572 7.14265C14.3606 7.14265 15.0006 6.18265 15.0006 4.99979C15.0006 3.81693 14.3606 2.85693 13.572 2.85693C12.7834 2.85693 12.1434 3.81693 12.1434 4.99979C12.1434 6.18265 12.7834 7.14265 13.572 7.14265ZM17.8577 13.5712C18.6463 13.5712 19.2863 12.6112 19.2863 11.4284C19.2863 10.2455 18.6463 9.2855 17.8577 9.2855C17.0691 9.2855 16.4291 10.2455 16.4291 11.4284C16.4291 12.6112 17.0691 13.5712 17.8577 13.5712ZM14.2863 14.2855C14.2863 16.2569 11.972 17.1426 10.0006 17.1426C8.02913 17.1426 5.71484 16.2569 5.71484 14.2855C5.71484 12.3141 7.14342 9.2855 10.0006 9.2855C12.8577 9.2855 14.2863 12.3141 14.2863 14.2855Z" stroke="currentColor" stroke-width="1.5" stroke-linecap="round" stroke-linejoin="round"/>
</g>
<defs>
<clipPath id="clip0_10775_8249">
<rect width="20" height="20" fill="white"/>
</clipPath>
</defs>
</svg>
