<svg width="20" height="20" viewBox="0 0 20 20" fill="none" xmlns="http://www.w3.org/2000/svg">
<path d="M10.001 2.2915C10.101 2.29153 10.2032 2.30526 10.3086 2.3335L10.416 2.3667L15.4043 4.23682C15.6335 4.32697 15.8159 4.46876 15.9609 4.66846C16.0997 4.85956 16.1674 5.06928 16.167 5.31201V9.24951C16.167 11.0923 15.6426 12.8138 14.583 14.4233C13.5321 16.0196 12.1292 17.1038 10.3633 17.6919C10.3038 17.7117 10.246 17.7264 10.1895 17.7358C10.1371 17.7446 10.0745 17.7495 10.001 17.7495C9.9275 17.7495 9.86487 17.7445 9.8125 17.7358C9.75593 17.7264 9.69724 17.7117 9.6377 17.6919C7.87181 17.1032 6.46883 16.0186 5.41797 14.4224C4.35843 12.8129 3.83398 11.0916 3.83398 9.24951V5.31201C3.83405 5.06915 3.90217 4.8597 4.04102 4.66846C4.18589 4.46892 4.36773 4.32694 4.5957 4.23682L9.58496 2.36572L9.58594 2.3667C9.72964 2.31542 9.86742 2.2915 10.001 2.2915ZM9.99902 9.6665C10.1089 9.66676 10.179 9.69834 10.2412 9.76025C10.3024 9.82119 10.3339 9.88979 10.334 9.99951V13.3345C10.3342 13.443 10.3029 13.5111 10.2412 13.5728C10.1949 13.619 10.1447 13.6488 10.0762 13.6606L10.001 13.6665H9.99902C9.89066 13.6667 9.82238 13.6354 9.76074 13.5737C9.69908 13.512 9.66705 13.4432 9.66699 13.3335V9.99951C9.66706 9.89158 9.69894 9.82228 9.76172 9.75928C9.82343 9.69743 9.89132 9.66634 9.99902 9.6665ZM10.001 6.3335C10.1107 6.33356 10.1793 6.36512 10.2402 6.42627C10.302 6.48837 10.3337 6.55782 10.334 6.66748C10.3342 6.77611 10.3029 6.84502 10.2412 6.90674C10.1796 6.96829 10.1106 6.99945 10.001 6.99951H9.99805C9.89139 6.99997 9.82327 6.96927 9.76074 6.90674C9.69827 6.84417 9.66674 6.77543 9.66699 6.66748C9.66729 6.55765 9.69976 6.48844 9.76172 6.42627C9.8227 6.36509 9.89109 6.3335 10.001 6.3335ZM15.501 4.96631L15.1758 4.84424L10.1758 2.96924L10.001 2.90381L9.8252 2.96924L4.8252 4.84424L4.50098 4.96631V9.24951C4.50098 11.0303 5.00276 12.6577 6.00488 14.1167C7.00559 15.5736 8.28834 16.5647 9.84961 17.0601L10.001 17.1079L10.1523 17.0601C11.7134 16.5646 12.9955 15.5734 13.9961 14.1167C14.9982 12.6577 15.501 11.0303 15.501 9.24951V4.96631Z" fill="black" stroke="#525252"/>
</svg>
