<svg width="20" height="20" viewBox="0 0 20 20" fill="none" xmlns="http://www.w3.org/2000/svg">
<path d="M7.8303 3.75H6.96224C4.50701 3.75 3.27939 3.75 2.51665 4.48223C1.75391 5.21447 1.75391 6.39297 1.75391 8.75V12.0833C1.75391 14.4403 1.75391 15.6188 2.51665 16.3511C3.27939 17.0833 4.50701 17.0833 6.96224 17.0833H10.4678C12.923 17.0833 14.1506 17.0833 14.9133 16.3511C15.4075 15.8767 15.5815 15.2149 15.6428 14.1667" stroke="#525252" stroke-linecap="round" stroke-linejoin="round"/>
<path d="M13.4723 5.83333V3.21129C13.4723 3.04857 13.6097 2.91667 13.7792 2.91667C13.8605 2.91667 13.9386 2.94771 13.9962 3.00296L17.9396 6.78871C18.1362 6.97735 18.2465 7.23322 18.2465 7.5C18.2465 7.76678 18.1362 8.02265 17.9396 8.21129L13.9962 11.997C13.9386 12.0523 13.8605 12.0833 13.7792 12.0833C13.6097 12.0833 13.4723 11.9514 13.4723 11.7887V9.16667H10.9298C7.39583 9.16667 6.09375 12.0833 6.09375 12.0833V10C6.09375 7.69882 8.03696 5.83333 10.434 5.83333H13.4723Z" stroke="#525252" stroke-linecap="round" stroke-linejoin="round"/>
</svg>
