<svg width="24" height="24" viewBox="0 0 24 24" fill="none" xmlns="http://www.w3.org/2000/svg">
<path d="M11.625 0.436035C13.5539 0.436035 15.125 2.00711 15.125 3.93604V3.99463L15.126 3.99658V13.5894L15.207 13.6646C16.2786 14.6468 16.9072 16.0384 16.9072 17.5317C16.907 20.4437 14.5371 22.8138 11.626 22.814C8.71474 22.814 6.344 20.443 6.34375 17.5317V17.5308C6.34261 16.8038 6.49352 16.0849 6.78613 15.4194C7.07885 14.7539 7.50728 14.156 8.04395 13.6655L8.125 13.5913V3.93604C8.125 2.00783 9.69611 0.436039 11.625 0.436035ZM11.625 1.43799C10.2461 1.43799 9.12695 2.56055 9.12695 3.93799V14.0757C8.01577 14.8741 7.34573 16.1476 7.3457 17.5327C7.34718 18.6672 7.79838 19.7549 8.60059 20.5571C9.35257 21.3091 10.355 21.7533 11.4121 21.8071L11.625 21.813C12.7597 21.8119 13.8478 21.3602 14.6504 20.5581C15.4529 19.756 15.9046 18.6683 15.9062 17.5337L15.8984 17.272C15.861 16.6629 15.6922 16.0676 15.4033 15.5278C15.0946 14.9511 14.6565 14.4549 14.125 14.0757V3.93799C14.125 2.55942 13.0036 1.43799 11.625 1.43799ZM12.875 6.71924V14.7837L13.0107 14.853C13.9261 15.3258 14.5732 16.2407 14.6504 17.3159L14.6582 17.5327C14.6451 18.3274 14.3202 19.0853 13.7539 19.6431C13.1867 20.2017 12.4221 20.5152 11.626 20.5151C10.8298 20.515 10.0652 20.2018 9.49805 19.6431C8.9317 19.0851 8.60756 18.3266 8.59473 17.5317C8.59484 16.3635 9.26565 15.3568 10.2402 14.8511L10.375 14.7817V6.71924H12.875ZM19.6885 7.98486L17.0625 6.46924L19.6885 4.95459V7.98486Z" fill="#EF4444" stroke="#EF4444" stroke-width="0.5"/>
</svg>
