<svg width="288" height="84" viewBox="0 0 288 84" fill="none" xmlns="http://www.w3.org/2000/svg">
<path d="M154.955 18.0221C154.97 18.022 154.985 18.022 155 18.022C159.971 18.022 164 22.0588 164 27.0386C164 31.6796 160.5 35.5016 156 36M154.955 18.0221C154.985 17.6921 155 17.3579 155 17.0202C155 10.9339 150.075 6 144 6C138.246 6 133.525 10.4253 133.041 16.0638M154.955 18.0221C154.751 20.2952 153.857 22.3692 152.486 24.033M133.041 16.0638C127.968 16.5475 124 20.8278 124 26.0366C124 30.8834 127.436 34.9264 132 35.8546M133.041 16.0638C133.357 16.0337 133.676 16.0183 134 16.0183C136.252 16.0183 138.329 16.7639 140.001 18.022" stroke="#004D5C" stroke-width="3.6" stroke-linecap="round" stroke-linejoin="round"/>
<path d="M144 26V42M144 26C142.6 26 139.983 29.9886 139 31M144 26C145.4 26 148.017 29.9886 149 31" stroke="#004D5C" stroke-width="3.6" stroke-linecap="round" stroke-linejoin="round"/>
<path d="M16.3943 56.68C16.6743 56.68 16.9169 56.708 17.1223 56.764C17.3463 56.82 17.5236 56.96 17.6543 57.184C17.7849 57.3893 17.8503 57.7253 17.8503 58.192C17.8503 58.6587 17.7849 59.004 17.6543 59.228C17.5236 59.4333 17.3463 59.564 17.1223 59.62C16.8983 59.6573 16.6463 59.676 16.3663 59.676H11.2143V74.6C11.2143 74.9173 11.1769 75.2067 11.1023 75.468C11.0463 75.7107 10.8969 75.9067 10.6543 76.056C10.4303 76.2053 10.0476 76.28 9.50627 76.28C9.00227 76.28 8.62893 76.196 8.38627 76.028C8.1436 75.8787 7.99427 75.6827 7.93827 75.44C7.88227 75.1787 7.85427 74.8893 7.85427 74.572V59.676H2.64627C2.38493 59.676 2.14227 59.648 1.91827 59.592C1.69427 59.536 1.5076 59.4053 1.35827 59.2C1.2276 58.9947 1.16227 58.6587 1.16227 58.192C1.16227 57.7253 1.2276 57.3893 1.35827 57.184C1.48893 56.96 1.66627 56.82 1.89027 56.764C2.13293 56.708 2.38493 56.68 2.64627 56.68H16.3943ZM23.0933 76.448C22.1973 76.448 21.3199 76.28 20.4613 75.944C19.6213 75.5893 18.8559 75.0947 18.1653 74.46C17.4933 73.8253 16.9519 73.0787 16.5413 72.22C16.1493 71.3613 15.9533 70.4187 15.9533 69.392C15.9533 68.4027 16.1399 67.4787 16.5133 66.62C16.8866 65.7613 17.3999 65.0053 18.0533 64.352C18.7066 63.6987 19.4533 63.1947 20.2933 62.84C21.1519 62.4667 22.0666 62.28 23.0373 62.28C24.3439 62.28 25.5293 62.5973 26.5933 63.232C27.6573 63.848 28.5066 64.688 29.1413 65.752C29.7759 66.816 30.0933 68.02 30.0933 69.364C30.0933 70.428 29.8973 71.3987 29.5053 72.276C29.1133 73.1347 28.5813 73.8813 27.9093 74.516C27.2373 75.132 26.4813 75.608 25.6413 75.944C24.8199 76.28 23.9706 76.448 23.0933 76.448ZM23.0373 73.144C23.6533 73.144 24.2413 72.9947 24.8013 72.696C25.3799 72.3787 25.8466 71.9307 26.2013 71.352C26.5746 70.7733 26.7613 70.092 26.7613 69.308C26.7613 68.58 26.5933 67.936 26.2573 67.376C25.9399 66.816 25.5013 66.3773 24.9413 66.06C24.3813 65.7427 23.7373 65.584 23.0093 65.584C22.3186 65.584 21.6933 65.752 21.1333 66.088C20.5733 66.4053 20.1253 66.8533 19.7893 67.432C19.4719 67.992 19.3133 68.6267 19.3133 69.336C19.3133 70.12 19.4906 70.8013 19.8453 71.38C20.1999 71.94 20.6573 72.3787 21.2173 72.696C21.7959 72.9947 22.4026 73.144 23.0373 73.144ZM38.0059 76.252C37.1472 76.252 36.3539 76.1027 35.6259 75.804C34.9166 75.4867 34.2912 75.0387 33.7499 74.46C33.2086 73.8813 32.7886 73.1907 32.4899 72.388C32.1912 71.5853 32.0419 70.6987 32.0419 69.728V64.156C32.0419 63.8387 32.0699 63.5587 32.1259 63.316C32.1819 63.0547 32.3312 62.8493 32.5739 62.7C32.8166 62.5507 33.1899 62.476 33.6939 62.476C34.2352 62.476 34.6179 62.5507 34.8419 62.7C35.0846 62.8493 35.2339 63.0547 35.2899 63.316C35.3459 63.5773 35.3739 63.8667 35.3739 64.184V69.728C35.3739 70.4 35.4859 70.9787 35.7099 71.464C35.9526 71.9493 36.2979 72.332 36.7459 72.612C37.1939 72.8733 37.7446 73.004 38.3979 73.004C39.0699 73.004 39.6392 72.8733 40.1059 72.612C40.5912 72.332 40.9646 71.9493 41.2259 71.464C41.4872 70.96 41.6179 70.3813 41.6179 69.728V64.128C41.6179 63.8107 41.6459 63.5307 41.7019 63.288C41.7579 63.0267 41.9072 62.8307 42.1499 62.7C42.3926 62.5507 42.7752 62.476 43.2979 62.476C43.8206 62.476 44.1939 62.5507 44.4179 62.7C44.6419 62.8493 44.7819 63.0547 44.8379 63.316C44.9126 63.5773 44.9499 63.8573 44.9499 64.156V74.656C44.9499 74.936 44.9126 75.1973 44.8379 75.44C44.7819 75.6827 44.6326 75.8787 44.3899 76.028C44.1659 76.1773 43.7926 76.252 43.2699 76.252C42.8966 76.252 42.5979 76.2053 42.3739 76.112C42.1686 76.0373 42.0099 75.9347 41.8979 75.804C41.8046 75.6547 41.7392 75.5053 41.7019 75.356C41.6832 75.2067 41.6739 75.0573 41.6739 74.908L41.8979 74.152C41.7859 74.32 41.6179 74.5253 41.3939 74.768C41.1699 74.992 40.8899 75.2253 40.5539 75.468C40.2366 75.692 39.8632 75.8787 39.4339 76.028C39.0046 76.1773 38.5286 76.252 38.0059 76.252ZM54.3798 76.336C53.4838 76.336 52.6064 76.1867 51.7478 75.888C50.9078 75.5707 50.1424 75.1133 49.4518 74.516C48.7798 73.9187 48.2384 73.1907 47.8278 72.332C47.4358 71.4547 47.2398 70.4653 47.2398 69.364C47.2398 68.2627 47.4358 67.2827 47.8278 66.424C48.2384 65.5653 48.7798 64.8373 49.4518 64.24C50.1238 63.6427 50.8798 63.1853 51.7198 62.868C52.5598 62.5507 53.4278 62.392 54.3238 62.392C54.9771 62.392 55.5931 62.4853 56.1718 62.672C56.7691 62.8587 57.2824 63.0827 57.7118 63.344C58.1411 63.6053 58.4491 63.8667 58.6358 64.128C58.8784 64.352 59.0838 64.5667 59.2518 64.772C59.4198 64.9773 59.4758 65.2293 59.4198 65.528C59.3638 65.7147 59.2798 65.892 59.1678 66.06C59.0558 66.2093 58.9158 66.368 58.7478 66.536C58.2998 67.04 57.8611 67.2267 57.4318 67.096C57.1891 66.9653 56.9464 66.8253 56.7038 66.676C56.4611 66.5267 56.2091 66.3867 55.9478 66.256C55.7051 66.1067 55.4531 65.9853 55.1918 65.892C54.9304 65.7987 54.6411 65.752 54.3238 65.752C53.6144 65.752 52.9798 65.9107 52.4198 66.228C51.8784 66.5267 51.4491 66.9467 51.1318 67.488C50.8331 68.0293 50.6838 68.6547 50.6838 69.364C50.6838 70.0733 50.8331 70.708 51.1318 71.268C51.4491 71.8093 51.8784 72.2387 52.4198 72.556C52.9611 72.8547 53.5771 73.004 54.2678 73.004C54.6038 73.004 54.9211 72.9667 55.2198 72.892C55.5371 72.7987 55.8171 72.6867 56.0598 72.556C56.3024 72.4067 56.4984 72.2573 56.6478 72.108C56.8531 71.9773 57.0398 71.856 57.2078 71.744C57.3758 71.632 57.5531 71.576 57.7398 71.576C57.9638 71.576 58.1784 71.66 58.3838 71.828C58.6078 71.9773 58.8504 72.22 59.1118 72.556C59.3544 72.836 59.4851 73.1067 59.5038 73.368C59.5411 73.6293 59.4851 73.8813 59.3358 74.124C59.2051 74.3667 58.9811 74.5907 58.6638 74.796C58.4398 75.02 58.1038 75.2533 57.6558 75.496C57.2264 75.72 56.7224 75.916 56.1438 76.084C55.5838 76.252 54.9958 76.336 54.3798 76.336ZM63.2551 76.28C62.7324 76.28 62.3498 76.196 62.1071 76.028C61.8831 75.8787 61.7431 75.6733 61.6871 75.412C61.6311 75.1507 61.6031 74.8707 61.6031 74.572V57.856C61.6031 57.5387 61.6311 57.2587 61.6871 57.016C61.7618 56.7547 61.9111 56.5493 62.1351 56.4C62.3778 56.2507 62.7604 56.176 63.2831 56.176C63.8058 56.176 64.1791 56.26 64.4031 56.428C64.6458 56.5773 64.7951 56.7827 64.8511 57.044C64.9258 57.2867 64.9631 57.5667 64.9631 57.884V64.212C65.3364 63.7827 65.8124 63.3907 66.3911 63.036C66.9884 62.6627 67.7071 62.476 68.5471 62.476C69.6858 62.476 70.7031 62.756 71.5991 63.316C72.4951 63.8573 73.2044 64.6133 73.7271 65.584C74.2498 66.5547 74.5111 67.6933 74.5111 69V74.6C74.5111 74.8987 74.4831 75.1787 74.4271 75.44C74.3711 75.6827 74.2218 75.8787 73.9791 76.028C73.7551 76.1773 73.3818 76.252 72.8591 76.252C72.3364 76.252 71.9538 76.1773 71.7111 76.028C71.4684 75.8787 71.3191 75.6827 71.2631 75.44C71.2071 75.1787 71.1791 74.88 71.1791 74.544V68.972C71.1791 68.3187 71.0671 67.7493 70.8431 67.264C70.6191 66.7787 70.2831 66.4053 69.8351 66.144C69.4058 65.864 68.8644 65.724 68.2111 65.724C67.3338 65.724 66.5964 65.9853 65.9991 66.508C65.4018 67.012 65.0564 67.6653 64.9631 68.468V74.6C64.9631 74.8987 64.9258 75.1787 64.8511 75.44C64.7951 75.7013 64.6458 75.9067 64.4031 76.056C64.1791 76.2053 63.7964 76.28 63.2551 76.28ZM90.3948 76.28C89.4801 76.28 88.6961 76.1867 88.0428 76C87.3894 75.8133 86.8574 75.524 86.4468 75.132C86.0361 74.74 85.7281 74.236 85.5228 73.62C85.3361 72.9853 85.2428 72.2387 85.2428 71.38V59.508C85.2428 59.172 85.2708 58.8827 85.3268 58.64C85.4014 58.3973 85.5508 58.2107 85.7748 58.08C86.0174 57.9307 86.3908 57.856 86.8948 57.856C87.4174 57.856 87.7908 57.9307 88.0148 58.08C88.2574 58.2293 88.4068 58.4347 88.4628 58.696C88.5374 58.9387 88.5748 59.2093 88.5748 59.508V71.268C88.5748 71.66 88.6028 71.9773 88.6588 72.22C88.7334 72.4627 88.8361 72.6493 88.9668 72.78C89.1161 72.892 89.3028 72.976 89.5268 73.032C89.7694 73.0693 90.0588 73.088 90.3948 73.088C90.7494 73.088 91.0481 73.116 91.2908 73.172C91.5521 73.228 91.7481 73.368 91.8788 73.592C92.0094 73.7973 92.0748 74.1427 92.0748 74.628C92.0748 75.1507 91.9908 75.5333 91.8228 75.776C91.6734 76 91.4681 76.14 91.2068 76.196C90.9641 76.252 90.6934 76.28 90.3948 76.28ZM84.0948 62.756L86.9788 62.784L90.8428 62.672C91.1601 62.672 91.4401 62.7093 91.6828 62.784C91.9441 62.84 92.1494 62.9893 92.2988 63.232C92.4481 63.456 92.5228 63.8293 92.5228 64.352C92.5228 64.8373 92.4481 65.2013 92.2988 65.444C92.1494 65.6867 91.9534 65.8453 91.7108 65.92C91.4681 65.976 91.1881 66.004 90.8708 66.004L87.1188 65.948L84.0108 65.976C83.5441 65.9573 83.2174 65.8267 83.0308 65.584C82.8628 65.3227 82.7788 64.9027 82.7788 64.324C82.7788 63.7827 82.8814 63.3907 83.0868 63.148C83.3108 62.8867 83.6468 62.756 84.0948 62.756ZM101.05 76.448C100.154 76.448 99.277 76.28 98.4183 75.944C97.5783 75.5893 96.813 75.0947 96.1223 74.46C95.4503 73.8253 94.909 73.0787 94.4983 72.22C94.1063 71.3613 93.9103 70.4187 93.9103 69.392C93.9103 68.4027 94.097 67.4787 94.4703 66.62C94.8436 65.7613 95.357 65.0053 96.0103 64.352C96.6636 63.6987 97.4103 63.1947 98.2503 62.84C99.109 62.4667 100.024 62.28 100.994 62.28C102.301 62.28 103.486 62.5973 104.55 63.232C105.614 63.848 106.464 64.688 107.098 65.752C107.733 66.816 108.05 68.02 108.05 69.364C108.05 70.428 107.854 71.3987 107.462 72.276C107.07 73.1347 106.538 73.8813 105.866 74.516C105.194 75.132 104.438 75.608 103.598 75.944C102.777 76.28 101.928 76.448 101.05 76.448ZM100.994 73.144C101.61 73.144 102.198 72.9947 102.758 72.696C103.337 72.3787 103.804 71.9307 104.158 71.352C104.532 70.7733 104.718 70.092 104.718 69.308C104.718 68.58 104.55 67.936 104.214 67.376C103.897 66.816 103.458 66.3773 102.898 66.06C102.338 65.7427 101.694 65.584 100.966 65.584C100.276 65.584 99.6503 65.752 99.0903 66.088C98.5303 66.4053 98.0823 66.8533 97.7463 67.432C97.429 67.992 97.2703 68.6267 97.2703 69.336C97.2703 70.12 97.4476 70.8013 97.8023 71.38C98.157 71.94 98.6143 72.3787 99.1743 72.696C99.753 72.9947 100.36 73.144 100.994 73.144ZM126.072 76.504C124.728 76.504 123.468 76.252 122.292 75.748C121.135 75.2253 120.108 74.516 119.212 73.62C118.316 72.7053 117.616 71.66 117.112 70.484C116.608 69.2893 116.356 68.0107 116.356 66.648C116.356 65.248 116.599 63.9413 117.084 62.728C117.588 61.496 118.27 60.4227 119.128 59.508C120.006 58.5747 121.014 57.8467 122.152 57.324C123.291 56.8013 124.514 56.54 125.82 56.54C127.183 56.54 128.443 56.8013 129.6 57.324C130.776 57.828 131.803 58.5373 132.68 59.452C133.558 60.3667 134.248 61.4307 134.752 62.644C135.256 63.8387 135.508 65.136 135.508 66.536C135.508 67.8987 135.266 69.1867 134.78 70.4C134.295 71.5947 133.614 72.6587 132.736 73.592C131.859 74.5067 130.851 75.2253 129.712 75.748C128.592 76.252 127.379 76.504 126.072 76.504ZM125.932 73.088C126.791 73.088 127.594 72.92 128.34 72.584C129.087 72.248 129.74 71.7813 130.3 71.184C130.879 70.5867 131.327 69.896 131.644 69.112C131.962 68.3093 132.12 67.4507 132.12 66.536C132.12 65.6213 131.952 64.772 131.616 63.988C131.299 63.1853 130.851 62.4853 130.272 61.888C129.712 61.272 129.059 60.796 128.312 60.46C127.584 60.124 126.791 59.956 125.932 59.956C125.092 59.956 124.299 60.124 123.552 60.46C122.806 60.796 122.143 61.272 121.564 61.888C121.004 62.4853 120.566 63.1853 120.248 63.988C119.931 64.7907 119.772 65.64 119.772 66.536C119.772 67.432 119.931 68.2813 120.248 69.084C120.584 69.8867 121.032 70.5867 121.592 71.184C122.152 71.7813 122.796 72.248 123.524 72.584C124.271 72.92 125.074 73.088 125.932 73.088ZM144.651 76.084C143.737 76.084 142.915 75.916 142.187 75.58C141.478 75.2253 140.871 74.74 140.367 74.124C139.882 73.4893 139.509 72.7613 139.247 71.94C139.005 71.1187 138.883 70.232 138.883 69.28C138.902 68.328 139.042 67.4413 139.303 66.62C139.565 65.78 139.938 65.052 140.423 64.436C140.927 63.82 141.534 63.3347 142.243 62.98C142.953 62.6253 143.755 62.448 144.651 62.448C145.51 62.448 146.313 62.6253 147.059 62.98C147.825 63.3347 148.497 63.8293 149.075 64.464C149.673 65.0987 150.139 65.836 150.475 66.676C150.811 67.4973 150.979 68.384 150.979 69.336C150.979 70.3067 150.811 71.2027 150.475 72.024C150.139 72.8453 149.682 73.564 149.103 74.18C148.525 74.7773 147.853 75.244 147.087 75.58C146.322 75.916 145.51 76.084 144.651 76.084ZM139.051 81.908C138.547 81.908 138.174 81.8333 137.931 81.684C137.689 81.5347 137.539 81.3387 137.483 81.096C137.427 80.8533 137.399 80.5733 137.399 80.256V64.156C137.399 63.8387 137.427 63.5587 137.483 63.316C137.539 63.0733 137.679 62.8773 137.903 62.728C138.146 62.56 138.519 62.476 139.023 62.476C139.509 62.476 139.891 62.5507 140.171 62.7C140.451 62.8493 140.638 63.1013 140.731 63.456V80.228C140.75 80.5453 140.722 80.8253 140.647 81.068C140.591 81.3293 140.442 81.5347 140.199 81.684C139.957 81.8333 139.574 81.908 139.051 81.908ZM144.203 72.948C144.857 72.948 145.445 72.7987 145.967 72.5C146.49 72.1827 146.901 71.7533 147.199 71.212C147.517 70.652 147.675 70.0267 147.675 69.336C147.675 68.6267 147.517 68.0013 147.199 67.46C146.901 66.9187 146.49 66.4987 145.967 66.2C145.445 65.8827 144.857 65.724 144.203 65.724C143.569 65.724 142.99 65.8827 142.467 66.2C141.945 66.5173 141.525 66.9467 141.207 67.488C140.909 68.0107 140.759 68.6267 140.759 69.336C140.759 70.0267 140.909 70.652 141.207 71.212C141.525 71.7533 141.945 72.1827 142.467 72.5C142.99 72.7987 143.569 72.948 144.203 72.948ZM160.009 76.448C158.795 76.448 157.731 76.252 156.817 75.86C155.921 75.468 155.165 74.936 154.549 74.264C153.951 73.5733 153.494 72.808 153.177 71.968C152.878 71.1093 152.729 70.2227 152.729 69.308C152.729 67.964 153.037 66.7693 153.653 65.724C154.269 64.6787 155.118 63.8573 156.201 63.26C157.302 62.6627 158.562 62.364 159.981 62.364C160.989 62.364 161.875 62.5227 162.641 62.84C163.406 63.1573 164.041 63.5773 164.545 64.1C165.067 64.604 165.459 65.164 165.721 65.78C166.001 66.396 166.141 66.9933 166.141 67.572C166.141 68.5613 165.898 69.28 165.413 69.728C164.946 70.176 164.358 70.4 163.649 70.4H156.257C156.275 71.0347 156.471 71.5853 156.845 72.052C157.237 72.5187 157.722 72.8827 158.301 73.144C158.898 73.3867 159.505 73.508 160.121 73.508C160.587 73.508 160.998 73.48 161.353 73.424C161.726 73.368 162.043 73.3027 162.305 73.228C162.566 73.1347 162.79 73.0413 162.977 72.948C163.182 72.8547 163.369 72.7707 163.537 72.696C163.705 72.6213 163.863 72.5747 164.013 72.556C164.218 72.5373 164.423 72.584 164.629 72.696C164.834 72.808 165.002 73.004 165.133 73.284C165.245 73.4707 165.319 73.648 165.357 73.816C165.413 73.9653 165.441 74.1147 165.441 74.264C165.441 74.6373 165.217 74.992 164.769 75.328C164.321 75.6453 163.686 75.9067 162.865 76.112C162.062 76.336 161.11 76.448 160.009 76.448ZM156.257 68.412H161.997C162.314 68.412 162.557 68.3653 162.725 68.272C162.893 68.16 162.977 67.936 162.977 67.6C162.977 67.1707 162.846 66.788 162.585 66.452C162.323 66.0973 161.969 65.8267 161.521 65.64C161.073 65.4347 160.55 65.332 159.953 65.332C159.262 65.332 158.637 65.472 158.077 65.752C157.517 66.0133 157.069 66.3773 156.733 66.844C156.415 67.3107 156.257 67.8333 156.257 68.412ZM170.09 76.252C169.586 76.252 169.213 76.168 168.97 76C168.746 75.8507 168.606 75.6547 168.55 75.412C168.494 75.1507 168.466 74.8613 168.466 74.544V64.072C168.466 63.7733 168.494 63.5027 168.55 63.26C168.606 63.0173 168.756 62.8307 168.998 62.7C169.241 62.5507 169.614 62.476 170.118 62.476C170.566 62.476 170.902 62.532 171.126 62.644C171.35 62.756 171.5 62.896 171.574 63.064C171.649 63.232 171.686 63.4 171.686 63.568C171.705 63.736 171.724 63.8667 171.742 63.96L171.63 64.856C171.742 64.5573 171.929 64.268 172.19 63.988C172.452 63.708 172.769 63.456 173.142 63.232C173.516 62.9893 173.917 62.8027 174.346 62.672C174.794 62.5227 175.252 62.448 175.718 62.448C176.596 62.448 177.38 62.6067 178.07 62.924C178.761 63.2413 179.349 63.6893 179.834 64.268C180.338 64.8467 180.721 65.5373 180.982 66.34C181.244 67.124 181.374 68.0107 181.374 69V74.572C181.374 74.8893 181.337 75.1787 181.262 75.44C181.206 75.6827 181.066 75.8787 180.842 76.028C180.618 76.1773 180.236 76.252 179.694 76.252C179.172 76.252 178.789 76.168 178.546 76C178.304 75.8507 178.154 75.6547 178.098 75.412C178.042 75.1507 178.014 74.8613 178.014 74.544V68.972C178.014 68.3 177.893 67.7213 177.65 67.236C177.426 66.7507 177.09 66.3773 176.642 66.116C176.213 65.8547 175.662 65.724 174.99 65.724C174.337 65.724 173.768 65.864 173.282 66.144C172.797 66.4053 172.424 66.7787 172.162 67.264C171.901 67.7493 171.77 68.3187 171.77 68.972V74.572C171.77 74.8893 171.742 75.1787 171.686 75.44C171.63 75.6827 171.481 75.8787 171.238 76.028C171.014 76.1773 170.632 76.252 170.09 76.252ZM200.572 76.392C199.657 76.392 198.733 76.2613 197.8 76C196.866 75.72 195.97 75.3093 195.112 74.768C194.253 74.208 193.488 73.5267 192.816 72.724C192.162 71.9027 191.64 70.96 191.248 69.896C190.856 68.8133 190.66 67.6187 190.66 66.312C190.66 65.024 190.856 63.8667 191.248 62.84C191.64 61.7947 192.162 60.88 192.816 60.096C193.488 59.312 194.244 58.6587 195.084 58.136C195.942 57.6133 196.838 57.2213 197.772 56.96C198.724 56.68 199.666 56.5307 200.6 56.512C201.552 56.512 202.373 56.6147 203.064 56.82C203.754 57.0253 204.314 57.2493 204.744 57.492C205.173 57.716 205.462 57.8747 205.612 57.968C205.91 58.1547 206.19 58.3693 206.452 58.612C206.732 58.836 206.881 59.116 206.9 59.452C206.918 59.676 206.89 59.8813 206.816 60.068C206.741 60.236 206.638 60.4133 206.508 60.6C206.284 60.9173 206.06 61.1507 205.836 61.3C205.612 61.4493 205.388 61.524 205.164 61.524C204.958 61.524 204.762 61.468 204.576 61.356C204.408 61.244 204.193 61.104 203.932 60.936C203.82 60.8613 203.614 60.7493 203.316 60.6C203.036 60.432 202.653 60.2827 202.168 60.152C201.701 60.0213 201.132 59.956 200.46 59.956C199.657 59.956 198.873 60.096 198.108 60.376C197.342 60.656 196.652 61.076 196.036 61.636C195.438 62.1773 194.962 62.8587 194.608 63.68C194.253 64.4827 194.076 65.4067 194.076 66.452C194.076 67.4973 194.253 68.4307 194.608 69.252C194.962 70.0547 195.438 70.736 196.036 71.296C196.652 71.8373 197.342 72.248 198.108 72.528C198.873 72.808 199.657 72.948 200.46 72.948C201.094 72.948 201.636 72.892 202.084 72.78C202.55 72.6493 202.942 72.5 203.26 72.332C203.596 72.1453 203.848 72.0053 204.016 71.912C204.221 71.7813 204.417 71.66 204.604 71.548C204.79 71.436 204.986 71.38 205.192 71.38C205.416 71.38 205.63 71.4547 205.836 71.604C206.06 71.7533 206.274 71.996 206.48 72.332C206.61 72.5373 206.713 72.7333 206.788 72.92C206.862 73.1067 206.89 73.3027 206.872 73.508C206.853 73.844 206.704 74.1333 206.424 74.376C206.162 74.6 205.882 74.796 205.584 74.964C205.434 75.0573 205.145 75.2253 204.716 75.468C204.305 75.692 203.754 75.8973 203.064 76.084C202.373 76.2893 201.542 76.392 200.572 76.392ZM220.332 76.224C219.791 76.224 219.39 76.1213 219.128 75.916C218.867 75.7107 218.736 75.4307 218.736 75.076L218.932 74.152C218.783 74.3947 218.531 74.684 218.176 75.02C217.822 75.3373 217.355 75.6267 216.776 75.888C216.198 76.1307 215.498 76.252 214.676 76.252C213.799 76.252 212.968 76.0747 212.184 75.72C211.419 75.3467 210.738 74.8427 210.14 74.208C209.562 73.5547 209.095 72.8173 208.74 71.996C208.404 71.156 208.236 70.26 208.236 69.308C208.236 68.3933 208.404 67.5347 208.74 66.732C209.095 65.9107 209.571 65.1827 210.168 64.548C210.766 63.9133 211.447 63.4187 212.212 63.064C212.996 62.6907 213.818 62.504 214.676 62.504C215.442 62.504 216.086 62.6067 216.608 62.812C217.15 63.0173 217.607 63.2787 217.98 63.596C218.354 63.8947 218.662 64.212 218.904 64.548L218.736 63.736C218.736 63.3253 218.867 63.0173 219.128 62.812C219.39 62.588 219.8 62.476 220.36 62.476C220.883 62.476 221.256 62.56 221.48 62.728C221.704 62.8773 221.844 63.092 221.9 63.372C221.956 63.6333 221.984 63.932 221.984 64.268V74.516C221.984 74.8333 221.956 75.1227 221.9 75.384C221.844 75.6453 221.695 75.8507 221.452 76C221.228 76.1493 220.855 76.224 220.332 76.224ZM215.18 72.976C215.815 72.976 216.384 72.8173 216.888 72.5C217.392 72.1827 217.794 71.7533 218.092 71.212C218.41 70.652 218.568 70.036 218.568 69.364C218.568 68.636 218.41 68.0013 218.092 67.46C217.775 66.9187 217.355 66.4987 216.832 66.2C216.328 65.8827 215.759 65.724 215.124 65.724C214.434 65.724 213.818 65.892 213.276 66.228C212.735 66.5453 212.306 66.984 211.988 67.544C211.69 68.0853 211.54 68.7013 211.54 69.392C211.54 70.064 211.699 70.6707 212.016 71.212C212.334 71.7533 212.763 72.1827 213.304 72.5C213.864 72.8173 214.49 72.976 215.18 72.976ZM226.418 76.252C225.914 76.252 225.541 76.1773 225.298 76.028C225.074 75.8787 224.934 75.6733 224.878 75.412C224.822 75.1507 224.794 74.8707 224.794 74.572V64.1C224.794 63.8013 224.822 63.5307 224.878 63.288C224.934 63.0453 225.083 62.8493 225.326 62.7C225.569 62.5507 225.951 62.476 226.474 62.476C227.015 62.476 227.407 62.588 227.65 62.812C227.911 63.036 228.042 63.3907 228.042 63.876L227.79 64.66C227.883 64.4547 228.042 64.2307 228.266 63.988C228.49 63.7453 228.761 63.5027 229.078 63.26C229.414 63.0173 229.787 62.8213 230.198 62.672C230.609 62.5227 231.038 62.448 231.486 62.448C232.102 62.448 232.662 62.5507 233.166 62.756C233.689 62.9613 234.146 63.26 234.538 63.652C234.949 64.044 235.303 64.52 235.602 65.08C235.919 64.5947 236.274 64.156 236.666 63.764C237.058 63.3533 237.515 63.036 238.038 62.812C238.561 62.5693 239.149 62.448 239.802 62.448C240.885 62.448 241.79 62.7187 242.518 63.26C243.265 63.8013 243.825 64.576 244.198 65.584C244.59 66.5733 244.786 67.7587 244.786 69.14V74.572C244.786 74.8893 244.749 75.1787 244.674 75.44C244.618 75.6827 244.469 75.8787 244.226 76.028C244.002 76.1773 243.629 76.252 243.106 76.252C242.583 76.252 242.201 76.168 241.958 76C241.715 75.8507 241.566 75.6547 241.51 75.412C241.454 75.1507 241.426 74.8613 241.426 74.544V69.112C241.426 68.4213 241.342 67.824 241.174 67.32C241.006 66.816 240.754 66.424 240.418 66.144C240.101 65.864 239.681 65.724 239.158 65.724C238.598 65.724 238.113 65.864 237.702 66.144C237.31 66.4053 237.002 66.788 236.778 67.292C236.554 67.796 236.442 68.412 236.442 69.14V74.6C236.442 74.9173 236.395 75.216 236.302 75.496C236.209 75.7573 236.022 75.9533 235.742 76.084C235.481 76.2333 235.098 76.2893 234.594 76.252C234.127 76.2333 233.782 76.14 233.558 75.972C233.353 75.804 233.222 75.5987 233.166 75.356C233.129 75.0947 233.11 74.824 233.11 74.544V69.112C233.11 68.4213 233.026 67.824 232.858 67.32C232.69 66.7973 232.438 66.4053 232.102 66.144C231.785 65.864 231.355 65.724 230.814 65.724C230.235 65.724 229.741 65.8733 229.33 66.172C228.938 66.4707 228.639 66.872 228.434 67.376C228.229 67.88 228.126 68.4587 228.126 69.112V74.6C228.126 74.8987 228.089 75.1787 228.014 75.44C227.958 75.7013 227.809 75.8973 227.566 76.028C227.342 76.1773 226.959 76.252 226.418 76.252ZM254.263 76.448C253.049 76.448 251.985 76.252 251.071 75.86C250.175 75.468 249.419 74.936 248.803 74.264C248.205 73.5733 247.748 72.808 247.431 71.968C247.132 71.1093 246.983 70.2227 246.983 69.308C246.983 67.964 247.291 66.7693 247.907 65.724C248.523 64.6787 249.372 63.8573 250.455 63.26C251.556 62.6627 252.816 62.364 254.235 62.364C255.243 62.364 256.129 62.5227 256.895 62.84C257.66 63.1573 258.295 63.5773 258.799 64.1C259.321 64.604 259.713 65.164 259.975 65.78C260.255 66.396 260.395 66.9933 260.395 67.572C260.395 68.5613 260.152 69.28 259.667 69.728C259.2 70.176 258.612 70.4 257.903 70.4H250.511C250.529 71.0347 250.725 71.5853 251.099 72.052C251.491 72.5187 251.976 72.8827 252.555 73.144C253.152 73.3867 253.759 73.508 254.375 73.508C254.841 73.508 255.252 73.48 255.607 73.424C255.98 73.368 256.297 73.3027 256.559 73.228C256.82 73.1347 257.044 73.0413 257.231 72.948C257.436 72.8547 257.623 72.7707 257.791 72.696C257.959 72.6213 258.117 72.5747 258.267 72.556C258.472 72.5373 258.677 72.584 258.883 72.696C259.088 72.808 259.256 73.004 259.387 73.284C259.499 73.4707 259.573 73.648 259.611 73.816C259.667 73.9653 259.695 74.1147 259.695 74.264C259.695 74.6373 259.471 74.992 259.023 75.328C258.575 75.6453 257.94 75.9067 257.119 76.112C256.316 76.336 255.364 76.448 254.263 76.448ZM250.511 68.412H256.251C256.568 68.412 256.811 68.3653 256.979 68.272C257.147 68.16 257.231 67.936 257.231 67.6C257.231 67.1707 257.1 66.788 256.839 66.452C256.577 66.0973 256.223 65.8267 255.775 65.64C255.327 65.4347 254.804 65.332 254.207 65.332C253.516 65.332 252.891 65.472 252.331 65.752C251.771 66.0133 251.323 66.3773 250.987 66.844C250.669 67.3107 250.511 67.8333 250.511 68.412ZM264.344 76.28C263.84 76.28 263.467 76.196 263.224 76.028C263 75.8787 262.86 75.6733 262.804 75.412C262.748 75.1507 262.72 74.8613 262.72 74.544V64.156C262.72 63.82 262.748 63.5307 262.804 63.288C262.86 63.0267 263 62.8307 263.224 62.7C263.467 62.5507 263.85 62.476 264.372 62.476C264.876 62.476 265.24 62.5413 265.464 62.672C265.707 62.8027 265.856 62.9707 265.912 63.176C265.987 63.3627 266.024 63.5493 266.024 63.736L265.8 64.24C265.894 64.0907 266.024 63.9133 266.192 63.708C266.36 63.484 266.584 63.2693 266.864 63.064C267.144 62.84 267.48 62.6627 267.872 62.532C268.264 62.3827 268.731 62.308 269.272 62.308C269.496 62.308 269.73 62.336 269.972 62.392C270.234 62.4293 270.486 62.4947 270.728 62.588C270.99 62.6627 271.223 62.7653 271.428 62.896C271.634 63.0267 271.792 63.1853 271.904 63.372C272.016 63.54 272.072 63.736 272.072 63.96C272.072 64.5573 271.923 65.0613 271.624 65.472C271.326 65.8827 270.971 66.088 270.56 66.088C270.28 66.088 270.075 66.06 269.944 66.004C269.814 65.948 269.702 65.8827 269.608 65.808C269.534 65.7333 269.412 65.668 269.244 65.612C269.095 65.556 268.852 65.528 268.516 65.528C268.236 65.528 267.947 65.5747 267.648 65.668C267.368 65.7613 267.107 65.9013 266.864 66.088C266.622 66.2747 266.426 66.5173 266.276 66.816C266.127 67.096 266.052 67.4227 266.052 67.796V74.6C266.052 74.9173 266.024 75.2067 265.968 75.468C265.912 75.7107 265.763 75.9067 265.52 76.056C265.278 76.2053 264.886 76.28 264.344 76.28ZM284.672 76.224C284.131 76.224 283.73 76.1213 283.468 75.916C283.207 75.7107 283.076 75.4307 283.076 75.076L283.272 74.152C283.123 74.3947 282.871 74.684 282.516 75.02C282.162 75.3373 281.695 75.6267 281.116 75.888C280.538 76.1307 279.838 76.252 279.016 76.252C278.139 76.252 277.308 76.0747 276.524 75.72C275.759 75.3467 275.078 74.8427 274.48 74.208C273.902 73.5547 273.435 72.8173 273.08 71.996C272.744 71.156 272.576 70.26 272.576 69.308C272.576 68.3933 272.744 67.5347 273.08 66.732C273.435 65.9107 273.911 65.1827 274.508 64.548C275.106 63.9133 275.787 63.4187 276.552 63.064C277.336 62.6907 278.158 62.504 279.016 62.504C279.782 62.504 280.426 62.6067 280.948 62.812C281.49 63.0173 281.947 63.2787 282.32 63.596C282.694 63.8947 283.002 64.212 283.244 64.548L283.076 63.736C283.076 63.3253 283.207 63.0173 283.468 62.812C283.73 62.588 284.14 62.476 284.7 62.476C285.223 62.476 285.596 62.56 285.82 62.728C286.044 62.8773 286.184 63.092 286.24 63.372C286.296 63.6333 286.324 63.932 286.324 64.268V74.516C286.324 74.8333 286.296 75.1227 286.24 75.384C286.184 75.6453 286.035 75.8507 285.792 76C285.568 76.1493 285.195 76.224 284.672 76.224ZM279.52 72.976C280.155 72.976 280.724 72.8173 281.228 72.5C281.732 72.1827 282.134 71.7533 282.432 71.212C282.75 70.652 282.908 70.036 282.908 69.364C282.908 68.636 282.75 68.0013 282.432 67.46C282.115 66.9187 281.695 66.4987 281.172 66.2C280.668 65.8827 280.099 65.724 279.464 65.724C278.774 65.724 278.158 65.892 277.616 66.228C277.075 66.5453 276.646 66.984 276.328 67.544C276.03 68.0853 275.88 68.7013 275.88 69.392C275.88 70.064 276.039 70.6707 276.356 71.212C276.674 71.7533 277.103 72.1827 277.644 72.5C278.204 72.8173 278.83 72.976 279.52 72.976Z" fill="#09090B"/>
</svg>
