<svg width="44" height="44" viewBox="0 0 44 44" fill="none" xmlns="http://www.w3.org/2000/svg">
<rect width="44" height="44" rx="22" fill="#B0E9F4"/>
<g clip-path="url(#clip0_10398_11100)">
<path d="M14.7617 21.1523C15.7393 21.8753 16.9165 22.0423 18.4473 22.1582C18.4593 23.2785 18.5227 24.3086 18.8623 25.584L18.0088 25.915L18.0137 25.9297L18.0068 25.9121L18.001 25.9209C17.3122 26.8936 16.1184 28.1491 15.041 28.9219C14.867 28.8067 14.7332 28.6756 14.7021 28.502C14.6706 28.3253 14.7445 28.0983 15.0039 27.791C15.1778 27.5824 15.433 27.3072 15.6904 27.0293C15.9477 26.7516 16.2077 26.471 16.3896 26.252L16.3682 26.2295C15.5117 26.8443 14.1665 27.6861 13.1836 28.0469C13.0104 27.861 12.9748 27.5976 13.0469 27.3389C13.12 27.0765 13.3027 26.8221 13.5566 26.666C14.4452 26.1214 15.2069 25.6585 15.7959 25.1738C16.3852 24.6889 16.8034 24.1807 17.002 23.5439L17.0068 23.5254L16.9883 23.5234C16.058 23.4262 15.5617 23.0997 15.2666 22.6621C14.9773 22.2329 14.8791 21.6955 14.7617 21.1523ZM21.998 13.5859C21.7956 13.5861 21.5575 13.7189 21.2949 14.0664C21.0317 14.4144 20.7688 14.9577 20.5498 15.6406C20.1117 17.0051 19.834 18.9325 19.834 21.0625C19.8379 22.978 20.0417 24.4482 20.5498 26.4844V26.4854C20.7688 27.1659 21.0318 27.711 21.2949 28.0605C21.5575 28.4053 21.7956 28.5389 21.998 28.5391C22.2006 28.5391 22.4394 28.4056 22.7021 28.0605C22.9653 27.711 23.2282 27.1659 23.4473 26.4854C23.5685 26.1059 23.6776 25.6831 23.7715 25.2256L23.7764 25.2012L23.752 25.207C22.8942 25.4204 21.8314 25.444 21.0029 25.2939C20.6278 23.9933 20.5409 23.4806 20.4902 21.7881C21.7731 21.3722 22.5515 21.1263 24.1416 20.4053L24.1514 20.4004L24.1504 20.3906C24.0996 18.5303 23.8384 16.8603 23.4473 15.6406C23.2282 14.9577 22.9653 14.4144 22.7021 14.0664C22.4394 13.7186 22.2006 13.5859 21.998 13.5859ZM27.8418 18.332C27.838 18.332 27.8327 18.3325 27.8271 18.333C27.8226 18.3335 27.8169 18.3339 27.8115 18.3359C27.7319 18.3511 27.6729 18.4177 27.6396 18.5078C27.6146 18.5757 27.6041 18.6588 27.6094 18.748L27.6201 18.8389C27.644 18.9622 27.6946 19.0693 27.7588 19.1426C27.8226 19.2154 27.9017 19.2571 27.9814 19.2422C28.0612 19.2271 28.1216 19.1595 28.1553 19.0684C28.1807 18.9997 28.1916 18.9159 28.1855 18.8262L28.1738 18.7354C28.1519 18.6199 28.1064 18.5184 28.0479 18.4463C28.0042 18.3925 27.9522 18.354 27.8975 18.3389L27.8418 18.332ZM28.9141 20.9834V20.9805L28.9053 20.9893C28.7333 21.1651 28.6226 21.2835 28.4336 21.4375C28.2443 21.5917 27.9764 21.7823 27.4902 22.1006L27.457 22.1211L27.4951 22.1289C27.9027 22.2069 28.5986 22.3756 29.2246 22.5654C29.5376 22.6603 29.8335 22.76 30.0664 22.8564C30.1827 22.9046 30.2831 22.952 30.3623 22.9971C30.442 23.0424 30.499 23.085 30.5293 23.123C30.7669 23.4221 30.7442 23.7439 30.709 24.1113V24.1123C30.6953 24.2642 30.6783 24.3853 30.6494 24.4795C30.6206 24.5734 30.5806 24.6392 30.5215 24.6816C30.462 24.7242 30.3807 24.7453 30.2676 24.7451C30.1544 24.7449 30.0103 24.7235 29.8262 24.6836C29.7503 24.6671 29.7012 24.6237 29.668 24.5605C29.6343 24.4965 29.6169 24.4121 29.6064 24.3164C29.596 24.2208 29.5923 24.1162 29.585 24.0098C29.5813 23.9567 29.5772 23.9028 29.5703 23.8506L29.541 23.6992C29.5363 23.6806 29.5231 23.6635 29.5059 23.6484C29.4887 23.6335 29.4659 23.6192 29.4385 23.6055C29.3829 23.5777 29.3055 23.5512 29.2129 23.5254C29.0275 23.4739 28.7753 23.425 28.4922 23.3779C28.2088 23.3308 27.8935 23.2852 27.583 23.2402C27.2725 23.1953 26.9665 23.1503 26.7002 23.1055L26.6934 23.1357H26.6953V23.1367H26.6963C27.1532 23.2771 27.7013 23.5311 28.1465 23.7744C28.3696 23.8963 28.5666 24.0155 28.7129 24.1162C28.786 24.1665 28.8461 24.2121 28.8906 24.251C28.9356 24.2903 28.9634 24.3209 28.9727 24.3418C29.1541 24.7627 29.1353 25.2389 29.0498 25.7607C29.008 25.8974 28.8865 26.0582 28.7139 26.1328C28.5427 26.2066 28.3181 26.1978 28.0664 25.9922C28.0219 25.9556 28.0003 25.9018 27.9912 25.8359C27.9822 25.7699 27.9866 25.6931 27.9922 25.6113C27.9978 25.5301 28.005 25.4436 28.001 25.3613C27.9969 25.2788 27.9812 25.1983 27.9414 25.1289L27.8809 25.0449C27.8116 24.9649 27.7165 24.8945 27.6035 24.832C27.4523 24.7484 27.267 24.6782 27.0654 24.6191C26.6624 24.5012 26.1895 24.4258 25.7773 24.3711L25.7783 24.3672L25.7686 24.373H25.7676L25.7666 24.374C25.7655 24.3746 25.7639 24.3758 25.7617 24.377C25.7572 24.3794 25.75 24.383 25.7412 24.3877C25.7237 24.397 25.6977 24.4106 25.665 24.4277C25.5992 24.4621 25.5047 24.5107 25.3896 24.5674C25.1589 24.681 24.8452 24.8274 24.5156 24.958L24.5078 24.9609L24.5068 24.9697C24.3897 25.5981 24.2488 26.1756 24.085 26.6904C23.8509 27.4198 23.5746 28.0196 23.2402 28.4629C22.9875 28.7973 22.6851 29.053 22.3457 29.1572L22.334 29.1602V30.6484H25.1074V31.3203H18.8887V30.6484H21.6621V29.1602L21.6514 29.1572C21.3119 29.0531 21.0096 28.7973 20.7568 28.4629C20.4225 28.0196 20.1462 27.4199 19.9121 26.6904C19.3386 24.8725 19.2168 23.105 19.1621 21.0625L19.1758 20.2529C19.236 18.3895 19.5025 16.7142 19.9121 15.4355C20.1462 14.705 20.4225 14.1036 20.7568 13.6611C21.0913 13.2186 21.5131 12.9142 21.998 12.9141C22.4832 12.9141 22.9057 13.2184 23.2402 13.6611C23.5746 14.1036 23.8509 14.705 24.085 15.4355C24.4633 16.616 24.7168 18.1348 24.8027 19.8252L24.833 19.8311C25.1107 19.2151 25.2335 18.7128 25.3994 18.2295C25.5638 17.7507 25.7715 17.287 26.2158 16.7412C26.3168 16.8908 26.4294 17.0475 26.5264 17.2129C26.6269 17.3844 26.7104 17.5642 26.7451 17.7529L26.752 17.7949L26.7734 17.7578C26.8592 17.6097 27.0216 17.3464 27.209 17.1016C27.3026 16.9793 27.4022 16.8619 27.502 16.7656C27.598 16.673 27.6934 16.6009 27.7822 16.5625C27.8372 16.6274 27.8629 16.7153 27.8691 16.8184C27.8756 16.9257 27.8613 17.0468 27.8438 17.1699C27.8263 17.2925 27.805 17.418 27.7959 17.5303C27.7869 17.6421 27.7905 17.7444 27.8242 17.8223L27.8379 17.8164L27.8184 17.8252L27.832 17.8311C28.2421 18.0068 28.6092 18.1965 28.8174 18.4814L28.8301 18.4727L28.8154 18.4834L28.8242 18.4873C29.11 18.6056 29.4625 18.647 29.8174 18.6631C29.9948 18.6711 30.1738 18.6735 30.3457 18.6748C30.5174 18.6761 30.6823 18.6758 30.833 18.6826V18.6836C30.8774 18.6862 30.9279 18.7182 30.9717 18.7725C31.015 18.8262 31.0508 18.8995 31.0674 18.9795C31.084 19.0595 31.0814 19.1459 31.0498 19.2256C31.0182 19.3051 30.9568 19.3796 30.8545 19.4355L30.8613 19.4492L30.8506 19.4297L30.8467 19.4453C30.7279 19.8618 30.568 20.2026 30.2773 20.4609C29.9866 20.7193 29.5626 20.8958 28.9141 20.9834Z" fill="#004D5C" stroke="#004D5C" stroke-width="0.03125"/>
</g>
<defs>
<clipPath id="clip0_10398_11100">
<rect width="20" height="20" fill="white" transform="translate(12 12)"/>
</clipPath>
</defs>
</svg>
