<svg width="235" height="201" viewBox="0 0 235 201" fill="none" xmlns="http://www.w3.org/2000/svg">
<g clip-path="url(#clip0_10055_9956)">
<path d="M180.179 140.034C179.688 140.033 179.215 139.846 178.856 139.51C178.498 139.174 178.281 138.714 178.249 138.224L177.961 133.837C177.928 133.325 178.099 132.82 178.438 132.434C178.777 132.048 179.255 131.812 179.768 131.779L214.158 129.528C214.701 129.492 215.245 129.563 215.76 129.738C216.274 129.912 216.75 130.186 217.159 130.544C217.567 130.902 217.902 131.337 218.142 131.824C218.382 132.311 218.525 132.841 218.56 133.383C218.596 133.925 218.524 134.469 218.349 134.983C218.174 135.498 217.9 135.973 217.541 136.381C217.182 136.789 216.747 137.123 216.259 137.363C215.772 137.602 215.241 137.744 214.699 137.779L180.308 140.03C180.265 140.032 180.222 140.034 180.179 140.034Z" fill="#00A7C7"/>
<path d="M186.963 140.6C186.462 140.599 185.981 140.404 185.62 140.057C185.259 139.709 185.047 139.236 185.028 138.736L184.783 132.183C184.773 131.929 184.814 131.676 184.902 131.437C184.991 131.199 185.125 130.98 185.299 130.794C185.472 130.608 185.68 130.457 185.911 130.351C186.142 130.245 186.392 130.186 186.646 130.176L214.927 129.12C215.44 129.101 215.94 129.286 216.317 129.636C216.693 129.985 216.916 130.469 216.935 130.982L217.18 137.535C217.19 137.789 217.149 138.042 217.06 138.281C216.972 138.519 216.837 138.738 216.664 138.924C216.491 139.11 216.283 139.261 216.052 139.367C215.82 139.473 215.571 139.532 215.316 139.542L187.036 140.598C187.012 140.599 186.987 140.6 186.963 140.6Z" fill="#2F2E41"/>
<path d="M220.102 201H215.703C215.189 200.999 214.697 200.795 214.334 200.432C213.97 200.069 213.766 199.577 213.766 199.064V162.423C213.766 161.91 213.97 161.417 214.334 161.055C214.697 160.692 215.189 160.487 215.703 160.487H220.102C220.616 160.487 221.108 160.692 221.471 161.055C221.834 161.417 222.039 161.91 222.039 162.423V199.064C222.039 199.577 221.834 200.069 221.471 200.432C221.108 200.795 220.616 200.999 220.102 201Z" fill="#2F2E41"/>
<path d="M209.594 201H205.195C204.681 200.999 204.189 200.795 203.826 200.432C203.463 200.069 203.258 199.577 203.258 199.064V162.423C203.258 161.91 203.463 161.417 203.826 161.055C204.189 160.692 204.681 160.487 205.195 160.487H209.594C210.108 160.487 210.6 160.692 210.963 161.055C211.327 161.417 211.531 161.91 211.531 162.423V199.064C211.531 199.577 211.327 200.069 210.963 200.432C210.6 200.795 210.108 200.999 209.594 201Z" fill="#2F2E41"/>
<path d="M213.419 122.248C221.814 122.248 228.619 115.447 228.619 107.057C228.619 98.6674 221.814 91.8662 213.419 91.8662C205.024 91.8662 198.219 98.6674 198.219 107.057C198.219 115.447 205.024 122.248 213.419 122.248Z" fill="#00A7C7"/>
<path d="M205.193 112.243C204.704 112.083 204.256 111.82 203.877 111.471C203.626 111.222 203.433 110.922 203.31 110.591C203.188 110.259 203.139 109.905 203.168 109.553C203.184 109.302 203.258 109.059 203.384 108.841C203.509 108.624 203.684 108.438 203.893 108.299C204.437 107.95 205.164 107.949 205.904 108.275L205.876 102.345L206.472 102.342L206.505 109.314L206.046 109.025C205.513 108.691 204.753 108.456 204.215 108.8C204.082 108.891 203.972 109.012 203.894 109.152C203.815 109.293 203.77 109.449 203.762 109.61C203.742 109.872 203.778 110.136 203.869 110.383C203.96 110.629 204.103 110.854 204.289 111.04C204.947 111.669 205.907 111.865 207.002 112.041L206.908 112.629C206.326 112.552 205.752 112.423 205.193 112.243Z" fill="#2F2E41"/>
<path d="M199.73 102.047L199.652 102.637L202.835 103.057L202.913 102.467L199.73 102.047Z" fill="#2F2E41"/>
<path d="M209.777 103.371L209.699 103.962L212.882 104.382L212.96 103.791L209.777 103.371Z" fill="#2F2E41"/>
<path d="M223.333 172.254H200.482C199.916 172.253 199.366 172.063 198.921 171.715C198.475 171.366 198.159 170.879 198.022 170.33C197.954 170.029 197.943 169.717 197.989 169.412C197.989 169.412 202.452 144.362 204.66 132.331C204.982 130.577 205.909 128.992 207.28 127.851C208.651 126.71 210.378 126.085 212.162 126.085C216.534 126.085 220.727 127.821 223.819 130.911C226.91 134 228.647 138.191 228.647 142.56V166.943C228.647 167.641 228.509 168.331 228.242 168.975C227.975 169.62 227.584 170.205 227.09 170.698C226.597 171.192 226.011 171.583 225.366 171.85C224.722 172.116 224.031 172.254 223.333 172.254Z" fill="#2F2E41"/>
<path d="M218.926 168.944C218.759 169.278 218.498 169.557 218.176 169.747C217.854 169.937 217.484 170.03 217.11 170.015L212.715 169.83C212.461 169.819 212.211 169.759 211.981 169.651C211.75 169.544 211.542 169.393 211.37 169.206C211.198 169.018 211.065 168.799 210.977 168.56C210.89 168.322 210.85 168.068 210.861 167.814L212.312 133.402C212.334 132.859 212.464 132.327 212.693 131.834C212.922 131.342 213.245 130.899 213.645 130.532C214.045 130.164 214.514 129.879 215.024 129.693C215.534 129.506 216.076 129.422 216.619 129.445C217.161 129.468 217.694 129.597 218.187 129.826C218.68 130.055 219.123 130.378 219.49 130.778C219.858 131.178 220.143 131.646 220.33 132.156C220.516 132.666 220.601 133.207 220.578 133.75L219.127 168.162C219.116 168.434 219.047 168.7 218.926 168.944Z" fill="#00A7C7"/>
<path d="M221.174 159.819C221.007 160.154 220.747 160.433 220.425 160.623C220.103 160.813 219.733 160.906 219.359 160.89L211.852 160.574C211.339 160.552 210.855 160.327 210.508 159.949C210.16 159.572 209.977 159.071 209.998 158.558L211.189 130.301C211.2 130.047 211.26 129.797 211.367 129.567C211.474 129.336 211.626 129.129 211.813 128.957C212.001 128.785 212.22 128.651 212.459 128.564C212.698 128.477 212.952 128.437 213.206 128.448L220.713 128.764C220.967 128.775 221.217 128.835 221.447 128.942C221.678 129.05 221.886 129.201 222.058 129.388C222.23 129.575 222.363 129.795 222.451 130.033C222.538 130.272 222.578 130.526 222.567 130.78L221.376 159.037C221.365 159.309 221.296 159.576 221.174 159.819Z" fill="#2F2E41"/>
<path d="M212.577 97.1897C209.298 98.4818 204.344 99.8554 202.183 96.0191C201.761 95.235 201.511 94.3701 201.449 93.482C201.388 92.5938 201.517 91.7028 201.827 90.8682C202.48 89.0583 203.868 87.5672 205.451 86.5136C208.416 84.5399 212.167 84.0026 215.619 84.7654C217.355 85.1431 219.003 85.8506 220.472 86.8495C222.142 87.9937 223.318 89.5382 224.5 91.1547C225.708 92.8072 227.076 94.474 229.062 95.1979C230.686 95.7899 232.721 95.4877 233.87 94.1103C234.138 93.7887 234.344 93.4198 234.477 93.0227C234.649 92.5165 233.848 92.2992 233.677 92.8023C233.073 94.575 230.851 94.9723 229.283 94.3985C227.212 93.641 225.903 91.673 224.661 89.9739C223.474 88.3497 222.161 86.9197 220.446 85.8423C218.905 84.881 217.197 84.2149 215.412 83.8781C211.817 83.1947 207.946 83.8004 204.9 85.8872C203.221 86.9859 201.906 88.5569 201.12 90.4021C200.422 92.1479 200.44 94.098 201.17 95.8309C201.536 96.6944 202.108 97.4555 202.835 98.0481C203.563 98.6406 204.424 99.0467 205.344 99.231C207.353 99.6378 209.44 99.1698 211.347 98.5248C211.835 98.3595 212.318 98.1782 212.798 97.9891C213.289 97.7956 213.075 96.9935 212.577 97.1897Z" fill="#2F2E41"/>
<path d="M13.3082 0H117.373C120.901 0.00397043 124.284 1.40649 126.779 3.89986C129.274 6.39323 130.677 9.77383 130.681 13.3V70.1963C130.677 73.7225 129.274 77.1031 126.779 79.5965C124.284 82.0898 120.901 83.4923 117.373 83.4963H13.3082C9.77985 83.4923 6.39717 82.0898 3.90226 79.5965C1.40735 77.1031 0.00396483 73.7225 0 70.1963V13.3C0.00396409 9.77383 1.40735 6.39323 3.90226 3.89986C6.39717 1.40649 9.77985 0.00397043 13.3082 0Z" fill="#F2F2F2"/>
<path d="M13.309 3.82861H117.374C119.886 3.83143 122.295 4.83019 124.072 6.60577C125.849 8.38136 126.848 10.7888 126.851 13.2998V70.1962C126.848 72.7072 125.849 75.1146 124.072 76.8902C122.295 78.6658 119.886 79.6646 117.374 79.6674H13.309C10.7964 79.6645 8.38753 78.6657 6.61087 76.8902C4.83421 75.1146 3.83485 72.7072 3.83203 70.1962V13.2998C3.83484 10.7888 4.83421 8.38139 6.61087 6.60581C8.38753 4.83023 10.7964 3.83146 13.309 3.82861Z" fill="white"/>
<path d="M14.3226 103.867C14.0086 103.866 13.6978 103.803 13.4082 103.682C12.9758 103.508 12.6059 103.208 12.347 102.821C12.0881 102.434 11.9522 101.978 11.9572 101.512V81.8432L38.1954 80.9609L15.9697 103.173C15.7548 103.392 15.4985 103.566 15.2158 103.685C14.9331 103.804 14.6295 103.866 14.3226 103.867Z" fill="#F2F2F2"/>
<path d="M104.338 17.981H26.0868C22.9538 17.981 20.4141 20.5192 20.4141 23.6502V23.6502C20.4141 26.7812 22.9538 29.3194 26.0868 29.3194H104.338C107.471 29.3194 110.011 26.7812 110.011 23.6502C110.011 20.5192 107.471 17.981 104.338 17.981Z" fill="#F2F2F2"/>
<path d="M104.467 36.0791H26.2157C23.0827 36.0791 20.543 38.6173 20.543 41.7483V41.7483C20.543 44.8794 23.0827 47.4176 26.2157 47.4176H104.467C107.6 47.4176 110.14 44.8794 110.14 41.7483C110.14 38.6173 107.6 36.0791 104.467 36.0791Z" fill="#F2F2F2"/>
<path d="M104.592 54.1768H26.3407C23.2077 54.1768 20.668 56.715 20.668 59.846V59.846C20.668 62.977 23.2077 65.5152 26.3407 65.5152H104.592C107.725 65.5152 110.265 62.977 110.265 59.846C110.265 56.715 107.725 54.1768 104.592 54.1768Z" fill="#F2F2F2"/>
<path d="M177.635 29.0181H73.5699C70.0416 29.022 66.6589 30.4246 64.164 32.9179C61.6691 35.4113 60.2657 38.7919 60.2617 42.318V99.2144C60.2657 102.741 61.6691 106.121 64.164 108.615C66.6589 111.108 70.0416 112.51 73.5699 112.514H177.635C181.163 112.51 184.546 111.108 187.041 108.615C189.536 106.121 190.939 102.741 190.943 99.2144V42.318C190.939 38.7919 189.536 35.4113 187.041 32.9179C184.546 30.4246 181.163 29.022 177.635 29.0181Z" fill="#E6E6E6"/>
<path d="M177.636 32.8467H73.5708C71.0582 32.8495 68.6493 33.8483 66.8727 35.6238C65.096 37.3994 64.0966 39.8068 64.0938 42.3179V99.2142C64.0966 101.725 65.096 104.133 66.8727 105.908C68.6493 107.684 71.0582 108.683 73.5708 108.685H177.636C180.148 108.683 182.557 107.684 184.334 105.908C186.111 104.133 187.11 101.725 187.113 99.2142V42.3179C187.11 39.8068 186.111 37.3995 184.334 35.6239C182.557 33.8483 180.148 32.8495 177.636 32.8467Z" fill="white"/>
<path d="M169.718 132.191L147.492 109.979L173.73 110.861V130.53C173.735 130.996 173.599 131.452 173.341 131.839C173.082 132.226 172.712 132.526 172.279 132.7C171.99 132.821 171.679 132.884 171.365 132.885C171.058 132.884 170.755 132.822 170.472 132.703C170.189 132.584 169.933 132.41 169.718 132.191Z" fill="#E6E6E6"/>
<path d="M102.651 77.9514C106.622 77.9514 109.841 74.7344 109.841 70.766C109.841 66.7976 106.622 63.5806 102.651 63.5806C98.68 63.5806 95.4609 66.7976 95.4609 70.766C95.4609 74.7344 98.68 77.9514 102.651 77.9514Z" fill="#00A7C7"/>
<path d="M125.6 77.9514C129.571 77.9514 132.79 74.7344 132.79 70.766C132.79 66.7976 129.571 63.5806 125.6 63.5806C121.629 63.5806 118.41 66.7976 118.41 70.766C118.41 74.7344 121.629 77.9514 125.6 77.9514Z" fill="#00A7C7"/>
<path d="M148.553 77.9514C152.524 77.9514 155.743 74.7344 155.743 70.766C155.743 66.7976 152.524 63.5806 148.553 63.5806C144.582 63.5806 141.363 66.7976 141.363 70.766C141.363 74.7344 144.582 77.9514 148.553 77.9514Z" fill="#00A7C7"/>
</g>
<defs>
<clipPath id="clip0_10055_9956">
<rect width="234.5" height="201" fill="white"/>
</clipPath>
</defs>
</svg>
