<svg width="44" height="44" viewBox="0 0 44 44" fill="none" xmlns="http://www.w3.org/2000/svg">
<rect width="44" height="44" rx="22" fill="#B0E9F4"/>
<path d="M22.0439 20.8462C23.0489 20.8462 23.894 21.5277 24.1299 22.4458V22.4468C24.2116 22.7599 24.2698 23.0791 24.3369 23.4106C24.4029 23.737 24.4767 24.0719 24.5898 24.3921C24.8202 25.0438 25.2138 25.6383 26.0205 26.0396L26.0732 26.0659H26.0918C26.7069 26.281 27.0885 26.5078 27.3252 26.8228C27.565 27.1419 27.6855 27.5911 27.6855 28.3159C27.6855 28.8426 27.4579 29.4011 27.0703 29.8491C26.6836 30.2961 26.1521 30.6167 25.5654 30.688L25.5586 30.689C24.1436 30.9043 23.0521 30.6233 22.1719 30.1226L22.0479 30.0522L21.9248 30.1226C21.0406 30.6235 19.9528 30.9005 18.5371 30.689L18.5293 30.688L18.3115 30.6499C17.8109 30.5359 17.3623 30.2418 17.0244 29.8501C16.6372 29.4011 16.4102 28.8409 16.4102 28.3159C16.4102 27.6111 16.5377 27.1527 16.7861 26.8228C17.0358 26.4913 17.4359 26.2507 18.0654 26.0454L18.084 26.0396L18.1016 26.0308C18.9722 25.5845 19.3579 24.9594 19.5654 24.2925C19.6667 23.967 19.7254 23.6309 19.7803 23.312C19.8361 22.9876 19.8873 22.6812 19.9717 22.3892C20.2292 21.4989 21.0606 20.8462 22.0439 20.8462ZM20.9658 24.4048L20.9688 25.7544H19.3496V27.854H20.9648L20.9619 29.2036L20.9609 29.4536H23.127L23.126 29.2036L23.123 27.854H24.6543V25.7544H23.1299V24.1538H20.9648L20.9658 24.4048ZM14.8857 19.8989C14.9311 19.9017 15.0009 19.9179 15.0957 19.9565C15.2847 20.0336 15.5227 20.1775 15.7754 20.3608C16.2813 20.7279 16.7945 21.2142 17.0293 21.5229L17.0342 21.5298L17.04 21.5366C17.3112 21.846 17.4814 22.2756 17.4814 22.7563C17.4813 23.7325 16.7892 24.4701 16 24.4702C15.3997 24.4702 14.8588 24.0505 14.6318 23.4126L14.6289 23.4058L14.5449 23.1704C14.3618 22.6091 14.2693 21.9759 14.2979 21.3989C14.3307 20.737 14.5198 20.1981 14.8555 19.8999C14.8604 19.8991 14.8699 19.898 14.8857 19.8989ZM29.2314 19.8999C29.5674 20.198 29.7571 20.7367 29.79 21.3989C29.8227 22.0581 29.697 22.7907 29.459 23.4058L29.4561 23.4126C29.2289 24.0509 28.6918 24.4702 28.0879 24.4702C27.2987 24.4702 26.6056 23.7326 26.6055 22.7563C26.6055 22.2769 26.7799 21.8465 27.0488 21.5356L27.0586 21.5239C27.2937 21.2167 27.8065 20.7294 28.3125 20.3618C28.5653 20.1782 28.8032 20.0349 28.9922 19.9575C29.0872 19.9186 29.1567 19.9018 29.2021 19.8989C29.217 19.898 29.2263 19.8992 29.2314 19.8999ZM19.9541 12.8667C20.0905 12.8436 20.1938 12.8689 20.2812 12.9243C20.3746 12.9835 20.467 13.0876 20.5518 13.2476C20.7235 13.5719 20.832 14.0592 20.8916 14.6167C20.9803 15.4468 20.9539 16.3709 20.9131 16.9956L20.8711 17.5063C20.7823 18.3708 20.2272 19.0749 19.498 19.2729L19.3496 19.3052C18.645 19.4245 18.1122 19.1512 17.7441 18.6489C17.3669 18.1339 17.1627 17.3721 17.1768 16.5522C17.2051 14.9034 18.1004 13.1809 19.9541 12.8667ZM24.1377 12.8667C25.9914 13.1809 26.8867 14.9034 26.915 16.5522C26.9291 17.3721 26.7249 18.1339 26.3477 18.6489C26.0025 19.1198 25.5126 19.3902 24.8721 19.3237L24.7412 19.3052C23.9913 19.1797 23.394 18.5233 23.2441 17.6782L23.2207 17.5063L23.1787 16.9956C23.1379 16.3709 23.1115 15.4468 23.2002 14.6167C23.2598 14.0592 23.3683 13.5719 23.54 13.2476C23.6248 13.0876 23.7172 12.9835 23.8105 12.9243C23.898 12.8689 24.0013 12.8436 24.1377 12.8667Z" fill="#004D5C" stroke="#004D5C" stroke-width="0.5"/>
</svg>
