<svg width="44" height="44" viewBox="0 0 44 44" fill="none" xmlns="http://www.w3.org/2000/svg">
<rect width="44" height="44" rx="22" fill="#B0E9F4"/>
<mask id="path-2-inside-1_10398_11095" fill="white">
<path fill-rule="evenodd" clip-rule="evenodd" d="M27.6727 20.0951C28.2113 19.8593 28.6199 19.4601 29.0031 19.0593C29.4399 18.6026 29.4456 18.0301 29.4456 17.7304C29.4456 17.254 28.9981 16.8783 28.2706 16.8608C27.8852 16.8515 27.6499 16.9476 27.3288 17.1815C27.0988 17.3486 26.5599 17.8958 26.8002 18.3433C26.8126 18.3666 26.8332 18.3948 26.862 18.4279C26.8904 18.461 26.9063 18.5031 26.9068 18.5467C26.9073 18.5903 26.8925 18.6327 26.8649 18.6665C26.8371 18.7002 26.7973 18.7218 26.7539 18.7267C26.7105 18.7316 26.6669 18.7193 26.6324 18.6926L26.5945 18.6633C26.1195 18.3004 25.8609 18.1654 25.8609 17.6279C25.8609 16.6165 27.1956 15.6447 28.4845 15.6758C29.772 15.7068 30.7745 16.6365 30.7745 17.7204C30.7745 18.3133 30.3967 19.1543 29.7788 19.8008C29.3838 20.2143 28.9069 20.5408 28.3784 20.7593C28.412 20.8146 28.4465 20.8745 28.482 20.939C28.832 21.5768 28.7863 21.6543 28.8309 22.4511C28.8752 23.2483 28.6395 24.6733 28.7299 25.3754C28.8206 26.0772 29.2738 26.1554 29.3734 26.6611C29.4365 26.9816 29.5933 28.3721 29.8438 30.8326C29.849 30.8824 29.8437 30.9327 29.8282 30.9803C29.8127 31.0279 29.7873 31.0718 29.7538 31.1089C29.7202 31.1461 29.6792 31.1758 29.6335 31.1961C29.5877 31.2165 29.5382 31.2269 29.4881 31.2268H28.7534C28.659 31.2267 28.5684 31.189 28.5016 31.1222C28.4348 31.0554 28.3972 30.9649 28.397 30.8704V30.6929C28.397 30.5804 28.4499 30.4743 28.5399 30.4072L28.6534 30.3218C28.7069 30.2818 28.748 30.2276 28.7722 30.1653C28.7964 30.1031 28.8026 30.0353 28.7902 29.9697C28.595 28.9297 28.4233 28.3036 28.2752 28.0915C28.1659 27.9343 27.6724 27.6783 27.0359 27.1818C26.9219 27.0928 26.7171 26.9033 26.4217 26.6133C26.3979 26.5898 26.368 26.5734 26.3354 26.5661C26.3028 26.5587 26.2688 26.5606 26.2372 26.5717C26.2057 26.5827 26.1779 26.6023 26.1569 26.6284C26.136 26.6544 26.1228 26.6858 26.1188 26.719C26.065 27.1487 25.9982 27.5109 25.9184 27.8054C25.822 28.1607 25.5257 29.0865 25.0295 30.5829C25.0059 30.6543 24.9604 30.7163 24.8995 30.7603C24.8386 30.8043 24.7654 30.828 24.6902 30.8279H23.7552C23.6706 30.8278 23.5894 30.7941 23.5296 30.7343C23.4697 30.6744 23.436 30.5933 23.4359 30.5086V30.4872C23.4358 30.4035 23.4651 30.3224 23.5187 30.2581C23.5723 30.1938 23.6468 30.1504 23.7292 30.1354L24.1302 30.0618C24.4181 29.0104 24.5437 28.2403 24.507 27.7515C24.4813 27.4058 24.2477 27.0036 24.0124 26.3036C23.9633 26.1582 23.8945 25.8605 23.8059 25.4108C23.8012 25.3869 23.7917 25.3642 23.7779 25.3441C23.764 25.324 23.7463 25.307 23.7256 25.294C23.705 25.2811 23.6819 25.2725 23.6578 25.2688C23.6337 25.2651 23.6092 25.2664 23.5856 25.2726L21.2059 25.889C21.1798 25.8957 21.1554 25.9084 21.1348 25.9259C21.1142 25.9434 21.0979 25.9654 21.087 25.9901C21.0762 26.0149 21.0711 26.0418 21.0721 26.0688C21.0732 26.0959 21.0803 26.1223 21.0931 26.1461L21.1492 26.2518C21.2563 26.4526 21.312 26.6768 21.312 26.9043V30.2472C21.312 30.3583 21.2602 30.4633 21.172 30.5311L20.6731 30.9133C20.6106 30.9613 20.534 30.9873 20.4552 30.9872H20.097C20.0501 30.9872 20.0036 30.9779 19.9603 30.96C19.9169 30.942 19.8775 30.9157 19.8443 30.8825C19.8112 30.8493 19.7849 30.8099 19.7669 30.7665C19.749 30.7231 19.7398 30.6766 19.7399 30.6297V30.4476C19.7399 30.3179 19.8095 30.1983 19.9227 30.1351L20.1799 29.9915C20.2399 29.958 20.2891 29.908 20.3214 29.8473C20.3537 29.7866 20.3678 29.7179 20.362 29.6493C20.3215 29.1667 20.2713 28.7997 20.2113 28.5483C20.1499 28.2887 20.0007 27.8261 19.7638 27.1604C19.7541 27.133 19.7378 27.1084 19.7164 27.0887C19.6949 27.0691 19.6691 27.0549 19.6409 27.0475C19.6128 27.0401 19.5833 27.0397 19.555 27.0463C19.5267 27.0529 19.5004 27.0663 19.4784 27.0854L19.4088 27.1454C19.2342 27.2965 19.0209 27.3954 18.7931 27.4322L16.5602 27.7893C16.5284 27.7944 16.4986 27.808 16.4739 27.8286C16.4492 27.8493 16.4306 27.8762 16.4199 27.9066C16.4093 27.937 16.407 27.9696 16.4134 28.0012C16.4198 28.0327 16.4346 28.062 16.4563 28.0858L16.6938 28.3472C16.7538 28.4129 16.7867 28.4986 16.7867 28.5876V28.8211C16.7867 28.8689 16.7771 28.9163 16.7585 28.9603C16.7399 29.0044 16.7126 29.0442 16.6783 29.0775C16.644 29.1108 16.6033 29.1369 16.5588 29.1542C16.5142 29.1715 16.4666 29.1797 16.4188 29.1783L16.1259 29.1697C16.0727 29.1682 16.0204 29.1547 15.973 29.1304C15.9256 29.106 15.8843 29.0714 15.852 29.029L15.4827 28.5454C15.4352 28.4831 15.4095 28.407 15.4095 28.3286V27.6186C15.4095 27.4947 15.4738 27.3793 15.5792 27.3143C17.1046 26.3715 17.9318 25.8501 18.0606 25.7501C18.1942 25.6465 18.2499 25.4734 18.2277 25.2308C17.9792 24.4926 17.5809 24.2311 17.402 23.794C17.2231 23.3568 16.8913 21.9976 16.727 21.4754C16.3967 20.4254 16.1067 19.8701 16.0284 19.704C15.8527 19.3311 15.5427 19.2783 15.2152 19.1497C14.8877 19.0211 14.2652 19.0404 13.8602 18.6851C13.4556 18.3293 13.4927 17.9579 13.3984 17.5536V17.059C13.3984 16.8615 13.5588 16.7015 13.7563 16.7015H14.7263C14.8574 16.7015 14.9777 16.6301 15.0406 16.5147C15.1513 16.3114 15.3282 16.1172 15.5713 15.9322C15.8949 15.6873 16.2638 15.509 16.6567 15.4076C16.5674 14.2954 16.5674 13.6672 16.6567 13.5229C16.7459 13.3786 16.9944 13.6043 17.402 14.2001C17.4601 13.4986 17.5738 13.2415 17.7431 13.4286C17.9009 13.6036 18.1733 14.2393 18.5602 15.3358C18.6109 15.4786 18.6842 15.6136 18.777 15.734C18.9394 15.944 19.0861 16.1952 19.217 16.4876C19.4659 17.0433 19.7567 18.4947 20.2713 19.2086C20.7856 19.9226 21.0859 19.9811 21.8288 20.1133C22.3224 20.2011 24.0242 19.9204 25.4181 19.8661C26.4917 19.824 27.3552 20.0047 27.5109 20.0447C27.5669 20.059 27.6208 20.076 27.6727 20.0951Z"/>
</mask>
<path fill-rule="evenodd" clip-rule="evenodd" d="M27.6727 20.0951C28.2113 19.8593 28.6199 19.4601 29.0031 19.0593C29.4399 18.6026 29.4456 18.0301 29.4456 17.7304C29.4456 17.254 28.9981 16.8783 28.2706 16.8608C27.8852 16.8515 27.6499 16.9476 27.3288 17.1815C27.0988 17.3486 26.5599 17.8958 26.8002 18.3433C26.8126 18.3666 26.8332 18.3948 26.862 18.4279C26.8904 18.461 26.9063 18.5031 26.9068 18.5467C26.9073 18.5903 26.8925 18.6327 26.8649 18.6665C26.8371 18.7002 26.7973 18.7218 26.7539 18.7267C26.7105 18.7316 26.6669 18.7193 26.6324 18.6926L26.5945 18.6633C26.1195 18.3004 25.8609 18.1654 25.8609 17.6279C25.8609 16.6165 27.1956 15.6447 28.4845 15.6758C29.772 15.7068 30.7745 16.6365 30.7745 17.7204C30.7745 18.3133 30.3967 19.1543 29.7788 19.8008C29.3838 20.2143 28.9069 20.5408 28.3784 20.7593C28.412 20.8146 28.4465 20.8745 28.482 20.939C28.832 21.5768 28.7863 21.6543 28.8309 22.4511C28.8752 23.2483 28.6395 24.6733 28.7299 25.3754C28.8206 26.0772 29.2738 26.1554 29.3734 26.6611C29.4365 26.9816 29.5933 28.3721 29.8438 30.8326C29.849 30.8824 29.8437 30.9327 29.8282 30.9803C29.8127 31.0279 29.7873 31.0718 29.7538 31.1089C29.7202 31.1461 29.6792 31.1758 29.6335 31.1961C29.5877 31.2165 29.5382 31.2269 29.4881 31.2268H28.7534C28.659 31.2267 28.5684 31.189 28.5016 31.1222C28.4348 31.0554 28.3972 30.9649 28.397 30.8704V30.6929C28.397 30.5804 28.4499 30.4743 28.5399 30.4072L28.6534 30.3218C28.7069 30.2818 28.748 30.2276 28.7722 30.1653C28.7964 30.1031 28.8026 30.0353 28.7902 29.9697C28.595 28.9297 28.4233 28.3036 28.2752 28.0915C28.1659 27.9343 27.6724 27.6783 27.0359 27.1818C26.9219 27.0928 26.7171 26.9033 26.4217 26.6133C26.3979 26.5898 26.368 26.5734 26.3354 26.5661C26.3028 26.5587 26.2688 26.5606 26.2372 26.5717C26.2057 26.5827 26.1779 26.6023 26.1569 26.6284C26.136 26.6544 26.1228 26.6858 26.1188 26.719C26.065 27.1487 25.9982 27.5109 25.9184 27.8054C25.822 28.1607 25.5257 29.0865 25.0295 30.5829C25.0059 30.6543 24.9604 30.7163 24.8995 30.7603C24.8386 30.8043 24.7654 30.828 24.6902 30.8279H23.7552C23.6706 30.8278 23.5894 30.7941 23.5296 30.7343C23.4697 30.6744 23.436 30.5933 23.4359 30.5086V30.4872C23.4358 30.4035 23.4651 30.3224 23.5187 30.2581C23.5723 30.1938 23.6468 30.1504 23.7292 30.1354L24.1302 30.0618C24.4181 29.0104 24.5437 28.2403 24.507 27.7515C24.4813 27.4058 24.2477 27.0036 24.0124 26.3036C23.9633 26.1582 23.8945 25.8605 23.8059 25.4108C23.8012 25.3869 23.7917 25.3642 23.7779 25.3441C23.764 25.324 23.7463 25.307 23.7256 25.294C23.705 25.2811 23.6819 25.2725 23.6578 25.2688C23.6337 25.2651 23.6092 25.2664 23.5856 25.2726L21.2059 25.889C21.1798 25.8957 21.1554 25.9084 21.1348 25.9259C21.1142 25.9434 21.0979 25.9654 21.087 25.9901C21.0762 26.0149 21.0711 26.0418 21.0721 26.0688C21.0732 26.0959 21.0803 26.1223 21.0931 26.1461L21.1492 26.2518C21.2563 26.4526 21.312 26.6768 21.312 26.9043V30.2472C21.312 30.3583 21.2602 30.4633 21.172 30.5311L20.6731 30.9133C20.6106 30.9613 20.534 30.9873 20.4552 30.9872H20.097C20.0501 30.9872 20.0036 30.9779 19.9603 30.96C19.9169 30.942 19.8775 30.9157 19.8443 30.8825C19.8112 30.8493 19.7849 30.8099 19.7669 30.7665C19.749 30.7231 19.7398 30.6766 19.7399 30.6297V30.4476C19.7399 30.3179 19.8095 30.1983 19.9227 30.1351L20.1799 29.9915C20.2399 29.958 20.2891 29.908 20.3214 29.8473C20.3537 29.7866 20.3678 29.7179 20.362 29.6493C20.3215 29.1667 20.2713 28.7997 20.2113 28.5483C20.1499 28.2887 20.0007 27.8261 19.7638 27.1604C19.7541 27.133 19.7378 27.1084 19.7164 27.0887C19.6949 27.0691 19.6691 27.0549 19.6409 27.0475C19.6128 27.0401 19.5833 27.0397 19.555 27.0463C19.5267 27.0529 19.5004 27.0663 19.4784 27.0854L19.4088 27.1454C19.2342 27.2965 19.0209 27.3954 18.7931 27.4322L16.5602 27.7893C16.5284 27.7944 16.4986 27.808 16.4739 27.8286C16.4492 27.8493 16.4306 27.8762 16.4199 27.9066C16.4093 27.937 16.407 27.9696 16.4134 28.0012C16.4198 28.0327 16.4346 28.062 16.4563 28.0858L16.6938 28.3472C16.7538 28.4129 16.7867 28.4986 16.7867 28.5876V28.8211C16.7867 28.8689 16.7771 28.9163 16.7585 28.9603C16.7399 29.0044 16.7126 29.0442 16.6783 29.0775C16.644 29.1108 16.6033 29.1369 16.5588 29.1542C16.5142 29.1715 16.4666 29.1797 16.4188 29.1783L16.1259 29.1697C16.0727 29.1682 16.0204 29.1547 15.973 29.1304C15.9256 29.106 15.8843 29.0714 15.852 29.029L15.4827 28.5454C15.4352 28.4831 15.4095 28.407 15.4095 28.3286V27.6186C15.4095 27.4947 15.4738 27.3793 15.5792 27.3143C17.1046 26.3715 17.9318 25.8501 18.0606 25.7501C18.1942 25.6465 18.2499 25.4734 18.2277 25.2308C17.9792 24.4926 17.5809 24.2311 17.402 23.794C17.2231 23.3568 16.8913 21.9976 16.727 21.4754C16.3967 20.4254 16.1067 19.8701 16.0284 19.704C15.8527 19.3311 15.5427 19.2783 15.2152 19.1497C14.8877 19.0211 14.2652 19.0404 13.8602 18.6851C13.4556 18.3293 13.4927 17.9579 13.3984 17.5536V17.059C13.3984 16.8615 13.5588 16.7015 13.7563 16.7015H14.7263C14.8574 16.7015 14.9777 16.6301 15.0406 16.5147C15.1513 16.3114 15.3282 16.1172 15.5713 15.9322C15.8949 15.6873 16.2638 15.509 16.6567 15.4076C16.5674 14.2954 16.5674 13.6672 16.6567 13.5229C16.7459 13.3786 16.9944 13.6043 17.402 14.2001C17.4601 13.4986 17.5738 13.2415 17.7431 13.4286C17.9009 13.6036 18.1733 14.2393 18.5602 15.3358C18.6109 15.4786 18.6842 15.6136 18.777 15.734C18.9394 15.944 19.0861 16.1952 19.217 16.4876C19.4659 17.0433 19.7567 18.4947 20.2713 19.2086C20.7856 19.9226 21.0859 19.9811 21.8288 20.1133C22.3224 20.2011 24.0242 19.9204 25.4181 19.8661C26.4917 19.824 27.3552 20.0047 27.5109 20.0447C27.5669 20.059 27.6208 20.076 27.6727 20.0951Z" fill="#004D5C" stroke="#004D5C" mask="url(#path-2-inside-1_10398_11095)"/>
</svg>
