<svg width="24" height="24" viewBox="0 0 24 24" fill="none" xmlns="http://www.w3.org/2000/svg">
<g clip-path="url(#clip0_10097_7397)">
<path d="M12 0.015625C14.5591 0.015625 16.8423 1.18047 18.3535 3.00977L18.3467 3.01562H21C22.6461 3.01562 23.9844 4.35394 23.9844 6V21C23.9844 22.6461 22.6461 23.9844 21 23.9844H3C1.35394 23.9844 0.015625 22.6461 0.015625 21V6C0.015625 4.35394 1.35394 3.01562 3 3.01562H5.63477V3.02441L5.64648 3.00977C7.15771 1.18047 9.44086 0.015625 12 0.015625ZM12 2.23438C10.4046 2.23438 8.87424 2.86795 7.74609 3.99609C6.61795 5.12424 5.98438 6.65456 5.98438 8.25C5.98438 9.84544 6.61795 11.3758 7.74609 12.5039C8.87424 13.6321 10.4046 14.2656 12 14.2656C13.5954 14.2656 15.1258 13.6321 16.2539 12.5039C17.3821 11.3758 18.0156 9.84544 18.0156 8.25C18.0156 6.65456 17.3821 5.12424 16.2539 3.99609C15.1258 2.86795 13.5954 2.23438 12 2.23438ZM13.5752 4.96094C13.7359 4.58909 14.1674 4.41466 14.5391 4.5752C14.9109 4.73587 15.0853 5.16742 14.9248 5.53906L13.3496 9.20898L13.3457 9.21875L13.3525 9.22656C13.6686 9.56127 13.8594 10.0073 13.8594 10.5C13.8594 11.5273 13.0273 12.3594 12 12.3594C10.9727 12.3594 10.1406 11.5273 10.1406 10.5C10.1406 9.47729 10.9637 8.64527 11.9863 8.64062H11.9961L12 8.63086L13.5752 4.96094Z" fill="#A855F7" stroke="#A855F7" stroke-width="0.03125"/>
</g>
<defs>
<clipPath id="clip0_10097_7397">
<rect width="24" height="24" fill="white"/>
</clipPath>
</defs>
</svg>
